<?xml version="1.0" encoding="UTF-8" standalone="no"?>
<!-- Created with Inkscape (http://www.inkscape.org/) -->

<svg
   xmlns:dc="http://purl.org/dc/elements/1.1/"
   xmlns:cc="http://creativecommons.org/ns#"
   xmlns:rdf="http://www.w3.org/1999/02/22-rdf-syntax-ns#"
   xmlns:svg="http://www.w3.org/2000/svg"
   xmlns="http://www.w3.org/2000/svg"
   xmlns:sodipodi="http://sodipodi.sourceforge.net/DTD/sodipodi-0.dtd"
   xmlns:inkscape="http://www.inkscape.org/namespaces/inkscape"
   width="417.77078"
   height="300.2373"
   id="svg2"
   inkscape:label="Pozadí"
   sodipodi:version="0.32"
   inkscape:version="0.91 r13725"
   sodipodi:docname="2-SRN-sc_principle_BC-TWT_referenceB.svg"
   inkscape:output_extension="org.inkscape.output.svg.inkscape"
   version="1.0">
  <sodipodi:namedview
     id="base"
     pagecolor="#ffffff"
     bordercolor="#666666"
     borderopacity="1.0"
     inkscape:pageopacity="0.0"
     inkscape:pageshadow="2"
     inkscape:zoom="1.8203466"
     inkscape:cx="304.31862"
     inkscape:cy="169.52979"
     inkscape:document-units="px"
     inkscape:current-layer="g4570"
     showgrid="false"
     showguides="true"
     inkscape:guide-bbox="true"
     inkscape:window-width="1306"
     inkscape:window-height="746"
     inkscape:window-x="0"
     inkscape:window-y="0"
     inkscape:window-maximized="1"
     fit-margin-top="0"
     fit-margin-left="0"
     fit-margin-right="0"
     fit-margin-bottom="0">
    <sodipodi:guide
       orientation="0,1"
       position="501.09542,1070.4964"
       id="guide3158" />
    <sodipodi:guide
       orientation="1,0"
       position="1204.5444,1223.7692"
       id="guide3268" />
    <sodipodi:guide
       orientation="0,1"
       position="769.66685,992.6392"
       id="guide3287" />
    <sodipodi:guide
       orientation="0,1"
       position="661.8097,1000.4963"
       id="guide3289" />
    <sodipodi:guide
       orientation="1,0"
       position="735.37914,1248.1767"
       id="guide2489" />
    <sodipodi:guide
       orientation="0,1"
       position="36.119964,321.53461"
       id="guide2440" />
  </sodipodi:namedview>
  <defs
     id="defs3">
    <inkscape:path-effect
       is_visible="true"
       id="path-effect4557"
       effect="spiro" />
    <inkscape:path-effect
       effect="spiro"
       id="path-effect4553"
       is_visible="true" />
    <inkscape:path-effect
       effect="spiro"
       id="path-effect4549"
       is_visible="true" />
    <inkscape:path-effect
       effect="spiro"
       id="path-effect4545"
       is_visible="true" />
    <inkscape:path-effect
       is_visible="true"
       id="path-effect5561"
       effect="spiro" />
    <inkscape:path-effect
       is_visible="true"
       id="path-effect5557"
       effect="spiro" />
    <inkscape:path-effect
       is_visible="true"
       id="path-effect5553"
       effect="spiro" />
    <inkscape:path-effect
       is_visible="true"
       id="path-effect5549"
       effect="spiro" />
    <inkscape:path-effect
       is_visible="true"
       id="path-effect5545"
       effect="spiro" />
    <inkscape:path-effect
       fuse_tolerance="0"
       vertical_pattern="false"
       prop_units="false"
       tang_offset="0"
       normal_offset="0"
       spacing="0"
       scale_y_rel="false"
       prop_scale="1"
       copytype="single_stretched"
       pattern="M 0,5 C 0,2.24 2.24,0 5,0 7.76,0 10,2.24 10,5 10,7.76 7.76,10 5,10 2.24,10 0,7.76 0,5 z"
       is_visible="true"
       id="path-effect5541"
       effect="skeletal" />
    <inkscape:path-effect
       is_visible="true"
       id="path-effect5539"
       effect="spiro" />
    <inkscape:path-effect
       is_visible="true"
       id="path-effect5561-1"
       effect="spiro" />
    <inkscape:path-effect
       is_visible="true"
       id="path-effect5561-5"
       effect="spiro" />
    <inkscape:path-effect
       is_visible="true"
       id="path-effect5561-14"
       effect="spiro" />
    <inkscape:path-effect
       is_visible="true"
       id="path-effect5561-2"
       effect="spiro" />
    <inkscape:path-effect
       is_visible="true"
       id="path-effect5561-8"
       effect="spiro" />
  </defs>
  <metadata
     id="metadata6">
    <rdf:RDF>
      <cc:Work
         rdf:about="">
        <dc:format>image/svg+xml</dc:format>
        <dc:type
           rdf:resource="http://purl.org/dc/dcmitype/StillImage" />
        <dc:title></dc:title>
      </cc:Work>
    </rdf:RDF>
  </metadata>
  <g
     inkscape:label="Vrstva 1"
     inkscape:groupmode="layer"
     id="layer1"
     transform="translate(329.71034,-4.01379)">
    <rect
       y="250.56949"
       x="-279.49365"
       height="20.700619"
       width="65.491646"
       id="rect3057-1-5"
       style="fill:#ffffff;fill-opacity:1;stroke:#000000;stroke-width:0.91299999;stroke-miterlimit:4;stroke-dasharray:none;stroke-opacity:1" />
    <path
       style="font-style:normal;font-variant:normal;font-weight:normal;font-stretch:normal;letter-spacing:normal;word-spacing:normal;text-anchor:start;fill:#000000;stroke:none"
       inkscape:connector-curvature="0"
       id="path3936-2"
       d="m -248.84741,263.75272 0.0578,-0.0165 0.0578,-0.0165 0.055,-0.0138 0.0523,-0.0165 0.10732,-0.0275 0.0991,-0.0248 0.10181,-0.0248 0.0991,-0.022 0.0991,-0.022 0.0991,-0.0193 0.10181,-0.0193 0.10732,-0.0165 0.055,-0.008 0.0578,-0.011 0.0578,-0.008 0.0605,-0.008 0.0605,-0.008 0.0633,-0.008 0.066,-0.008 0.066,-0.008 0.0716,-0.008 0.0716,-0.008 0.077,-0.011 0.0771,-0.008 0.85029,-0.11007 0,-0.3137 c -0.63015,-0.0413 -0.80902,-0.22014 -0.80902,-0.79525 l 0,-7.881 -2.94712,0 0,0.32746 c 0.91909,0.0688 1.04292,0.1651 1.04292,0.79525 l 0,2.50959 c -0.59163,-0.6329 -1.00164,-0.85029 -1.63179,-0.85029 -1.50796,0 -2.63067,1.46668 -2.63067,3.45344 0,1.86569 1.04016,3.2223 2.47932,3.2223 0.72647,0 1.1805,-0.22014 1.82441,-0.90533 l -0.34397,-0.33021 c -0.27517,0.31645 -0.56135,0.4678 -0.86404,0.4678 -0.72647,0 -1.06768,-0.82277 -1.06768,-2.56463 0,-1.76662 0.36873,-2.57563 1.16399,-2.57563 0.45403,0 0.8778,0.32746 1.07043,0.85029 l 0,3.32961 c 0,0.0826 -0.13759,0.31645 -0.3027,0.49256 l 0.34397,0.33021 z" />
    <path
       style="font-style:normal;font-variant:normal;font-weight:normal;font-stretch:normal;letter-spacing:normal;word-spacing:normal;text-anchor:start;fill:#000000;stroke:none"
       inkscape:connector-curvature="0"
       id="path3940-6"
       d="m -240.34451,267.53912 -0.0523,-0.006 -0.0495,-0.006 -0.0468,-0.006 -0.044,-0.005 -0.044,-0.006 -0.0385,-0.008 -0.0358,-0.008 -0.0358,-0.008 -0.0303,-0.011 -0.0303,-0.011 -0.0303,-0.0138 -0.0248,-0.0138 -0.0248,-0.0165 -0.0248,-0.0193 -0.022,-0.0193 -0.0193,-0.022 -0.0192,-0.022 -0.0165,-0.0248 -0.0165,-0.0275 -0.0165,-0.0303 -0.0138,-0.033 -0.0137,-0.0358 -0.0138,-0.0385 -0.0138,-0.0413 -0.011,-0.044 -0.011,-0.0468 -0.0138,-0.0495 -0.011,-0.0523 -0.006,-0.0275 -0.006,-0.0303 -0.006,-0.0275 -0.006,-0.0303 -0.008,-0.033 -0.006,-0.033 -0.006,-0.033 -0.006,-0.033 -0.95486,-5.7429 -0.26141,0 -2.94162,5.07422 c -0.80351,1.34836 -0.90532,1.46118 -1.30983,1.54098 l 0,0.16235 1.89595,0 0,-0.16235 c -0.51732,-0.0495 -0.59712,-0.10182 -0.59712,-0.35498 0,-0.19262 0.0303,-0.28343 0.20087,-0.6274 l 0.58062,-1.14747 2.23167,0 -0.0523,-0.36598 -1.9675,0 1.52171,-2.63618 0.44579,2.63618 0.0523,0.36598 0.20087,1.32909 c 0.011,0.0908 0.022,0.18162 0.022,0.26417 0,0.38524 -0.14309,0.47605 -0.7925,0.53659 l 0,0.16235 2.49583,0 z" />
    <path
       sodipodi:nodetypes="cc"
       inkscape:connector-curvature="0"
       inkscape:connector-type="polyline"
       id="path5337"
       d="M -128.75448,154.06546 40.961294,153.89638"
       style="display:inline;fill:none;stroke:#a40000;stroke-width:2;stroke-linecap:butt;stroke-linejoin:miter;stroke-miterlimit:4;stroke-dasharray:none;stroke-opacity:1" />
    <ellipse
       ry="21.244999"
       rx="21.244997"
       cy="-143.70111"
       cx="-154.12482"
       style="fill:#ffffff;fill-opacity:1;fill-rule:nonzero;stroke:#000000;stroke-width:1.99831486;stroke-miterlimit:4;stroke-dasharray:none;stroke-dashoffset:49.60488129;stroke-opacity:1"
       id="path3154"
       transform="matrix(0,-1,1,0,0,0)" />
    <path
       style="font-style:normal;font-variant:normal;font-weight:normal;font-stretch:normal;letter-spacing:normal;word-spacing:normal;text-anchor:start;fill:#000000;stroke:none"
       inkscape:connector-curvature="0"
       d="m -138.34335,160.0764 -0.077,-0.004 -0.077,-0.008 -0.0693,-0.0121 -0.0731,-0.0121 -0.0654,-0.0121 -0.0654,-0.0155 -0.0654,-0.0178 -0.0616,-0.0177 -0.0577,-0.0178 -0.0577,-0.0238 -0.0539,-0.0267 -0.0539,-0.0267 -0.0501,-0.0308 -0.05,-0.0347 -0.0501,-0.0347 -0.0462,-0.0386 -0.0462,-0.0425 -0.0423,-0.0462 -0.0462,-0.0462 -0.0423,-0.0502 -0.0385,-0.054 -0.0385,-0.054 -0.0423,-0.0617 -0.0346,-0.0617 -0.0385,-0.0654 -0.0385,-0.0695 -0.0346,-0.073 -0.0347,-0.0771 -0.0346,-0.0807 -0.0346,-0.0847 -0.0346,-0.0884 -0.0346,-0.0884 -1.78217,-4.69987 c 1.47424,-0.32333 2.10935,-0.59279 2.79836,-1.20866 0.63127,-0.55428 0.97769,-1.30101 0.97769,-2.16709 0,-1.78218 -1.4165,-2.75986 -3.98776,-2.75986 l -0.40417,0.57352 c 1.59357,0 2.37881,0.73137 2.37881,2.15169 0,1.89765 -1.2279,2.87536 -3.62595,2.87536 -0.30408,0 -0.51579,-0.0178 -0.97384,-0.0962 l 1.24329,-4.39193 c 0.11548,-0.4003 0.36567,-0.53887 0.97769,-0.53887 l 0.40417,-0.57355 -4.7576,0 0,0.30794 c 0.80832,0.11535 0.90456,0.13464 1.09316,0.26555 0.15397,0.0961 0.26944,0.32717 0.26944,0.53887 0,0.23084 -0.0962,0.69287 -0.2271,1.20864 l -2.35955,8.47594 c -0.34643,1.13167 -0.48115,1.2433 -1.55508,1.4165 l 0,0.30794 4.68062,0 0,-0.30794 c -1.17015,-0.15406 -1.30487,-0.25012 -1.30487,-0.88147 0,-0.19257 0.0577,-0.43881 0.23095,-1.11241 l 1.07393,-4.00702 1.24714,0.0962 2.3557,6.21257 2.83686,0 z"
       id="path5928" />
    <path
       sodipodi:type="arc"
       style="fill:#ffffff;fill-opacity:1;fill-rule:nonzero;stroke:#000000;stroke-width:3.40932035;stroke-miterlimit:4;stroke-opacity:1;stroke-dasharray:none;stroke-dashoffset:49.60488189"
       id="path2382"
       sodipodi:cx="135"
       sodipodi:cy="158.43361"
       sodipodi:rx="35.714287"
       sodipodi:ry="36.785713"
       d="M 170.71429,158.43361 A 35.714287,36.785713 0 0 1 135,195.21932 35.714287,36.785713 0 0 1 99.285713,158.43361 35.714287,36.785713 0 0 1 135,121.6479 a 35.714287,36.785713 0 0 1 35.71429,36.78571 z"
       transform="matrix(0,-0.59485988,0.57753395,0,-338.24861,300.60579)" />
    <path
       d="m -245.32951,216.93508 0.76599,-3.8184 -0.43881,0 c -0.26944,0.40415 -0.4388,0.50039 -0.86222,0.50039 -0.23095,0 -0.44266,-0.058 -0.88146,-0.21184 -0.42341,-0.17328 -1.03544,-0.26942 -1.63206,-0.26942 -1.99388,0 -3.41039,1.32416 -3.41039,3.20255 0,1.03544 0.28484,1.59356 1.43575,2.8176 0.17322,0.17328 0.42341,0.44266 0.74674,0.80835 0.34643,0.36181 0.61588,0.6505 0.7506,0.80446 0.90071,0.93922 1.15091,1.43962 1.15091,2.26332 0,1.43962 -1.07393,2.54818 -2.47504,2.54818 -1.59356,0 -2.79836,-1.35877 -2.79836,-3.18326 0,-0.15407 0.0193,-0.3041 0.0385,-0.43884 l -0.38492,-0.0385 -0.65051,4.27645 0.34258,0 c 0.13474,-0.44266 0.34642,-0.63513 0.73133,-0.63513 0.20786,0 0.49656,0.0769 0.99694,0.25013 0.88148,0.32717 1.39726,0.44265 1.99389,0.44265 2.20558,0 3.87229,-1.67055 3.87229,-3.83766 0,-1.24328 -0.44266,-1.99386 -2.1671,-3.73754 -1.72444,-1.74368 -1.89765,-2.01316 -1.89765,-2.95235 0,-1.20863 0.80448,-1.95539 2.10936,-1.95539 0.70825,0 1.30487,0.25012 1.70519,0.70824 0.42341,0.48117 0.57738,1.13167 0.61202,2.39808 z"
       id="path3126"
       inkscape:connector-curvature="0"
       style="font-style:normal;font-variant:normal;font-weight:normal;font-stretch:normal;letter-spacing:normal;word-spacing:normal;text-anchor:start;fill:#000000;stroke:none" />
    <path
       d="m -237.06144,228.37489 -0.0731,-0.009 -0.0693,-0.009 -0.0654,-0.009 -0.0616,-0.009 -0.0616,-0.009 -0.0539,-0.012 -0.0501,-0.012 -0.05,-0.012 -0.0423,-0.0155 -0.0423,-0.0155 -0.0423,-0.0179 -0.0346,-0.0179 -0.0346,-0.0237 -0.0346,-0.0266 -0.0308,-0.0266 -0.027,-0.0308 -0.027,-0.0308 -0.0231,-0.0347 -0.0231,-0.0385 -0.0231,-0.0425 -0.0193,-0.0463 -0.0193,-0.0502 -0.0193,-0.054 -0.0193,-0.0578 -0.0155,-0.0617 -0.0155,-0.0655 -0.0193,-0.0691 -0.0155,-0.0731 -0.008,-0.0385 -0.008,-0.0425 -0.008,-0.0385 -0.008,-0.0425 -0.0115,-0.0463 -0.008,-0.0462 -0.008,-0.0463 -0.008,-0.0462 -1.33567,-8.03326 -0.36548,0 -4.11478,7.09787 c -1.12397,1.8861 -1.26639,2.04392 -1.83222,2.15558 l 0,0.22698 2.65209,0 0,-0.22698 c -0.72364,-0.0695 -0.83527,-0.14238 -0.83527,-0.49658 0,-0.2694 0.0423,-0.39645 0.28098,-0.87759 l 0.81218,-1.60513 3.1217,0 -0.0731,-0.51193 -2.75218,0 2.12861,-3.68753 0.62357,3.68753 0.0731,0.51193 0.28098,1.85917 c 0.0155,0.1269 0.0308,0.25397 0.0308,0.36951 0,0.53888 -0.20016,0.6659 -1.10857,0.75062 l 0,0.22698 3.49122,0 z"
       id="path3128"
       inkscape:connector-curvature="0"
       style="font-style:normal;font-variant:normal;font-weight:normal;font-stretch:normal;letter-spacing:normal;word-spacing:normal;text-anchor:start;fill:#000000;stroke:none" />
    <path
       sodipodi:type="arc"
       style="fill:#ffffff;fill-opacity:1;fill-rule:nonzero;stroke:#000000;stroke-width:3.40932035;stroke-miterlimit:4;stroke-opacity:1;stroke-dasharray:none;stroke-dashoffset:49.60488189"
       id="path2452"
       sodipodi:cx="135"
       sodipodi:cy="158.43361"
       sodipodi:rx="35.714287"
       sodipodi:ry="36.785713"
       d="M 170.71429,158.43361 A 35.714287,36.785713 0 0 1 135,195.21932 35.714287,36.785713 0 0 1 99.285713,158.43361 35.714287,36.785713 0 0 1 135,121.6479 a 35.714287,36.785713 0 0 1 35.71429,36.78571 z"
       transform="matrix(0,-0.59485988,0.57753395,0,-338.24861,168.25602)" />
    <path
       id="path3286"
       d="m -245.67831,83.58364 0.76598,-3.81841 -0.4388,0 c -0.26943,0.40414 -0.43881,0.5004 -0.86223,0.5004 -0.23094,0 -0.44265,-0.0578 -0.88145,-0.21186 -0.42343,-0.17328 -1.03544,-0.2694 -1.63206,-0.2694 -1.99388,0 -3.4104,1.32414 -3.4104,3.20252 0,1.03545 0.28485,1.59359 1.43575,2.81761 0.17322,0.17328 0.42342,0.44266 0.74674,0.80835 0.34644,0.36181 0.61588,0.6505 0.75061,0.80446 0.9007,0.93922 1.15091,1.43962 1.15091,2.26334 0,1.43962 -1.07393,2.54818 -2.47505,2.54818 -1.59355,0 -2.79835,-1.35877 -2.79835,-3.18329 0,-0.15406 0.0193,-0.30409 0.0386,-0.43882 l -0.38494,-0.0385 -0.65051,4.27645 0.34259,0 c 0.1348,-0.44265 0.34642,-0.63514 0.73134,-0.63514 0.20786,0 0.49655,0.0769 0.99694,0.25014 0.88147,0.32718 1.39726,0.44266 1.99389,0.44266 2.20559,0 3.87228,-1.67055 3.87228,-3.83767 0,-1.24328 -0.44266,-1.99387 -2.1671,-3.73755 -1.72443,-1.74368 -1.89764,-2.01315 -1.89764,-2.95235 0,-1.20862 0.80448,-1.95537 2.10936,-1.95537 0.70824,0 1.30487,0.25012 1.70519,0.70824 0.42341,0.48115 0.57738,1.13167 0.61201,2.39806 z"
       inkscape:connector-curvature="0"
       style="font-style:normal;font-variant:normal;font-weight:normal;font-stretch:normal;letter-spacing:normal;word-spacing:normal;text-anchor:start;fill:#000000;stroke:none" />
    <path
       id="path3288"
       d="m -245.52434,95.25053 3.99932,0 c 2.22867,0 3.76065,-1.16245 3.76065,-2.83687 0,-0.52348 -0.16937,-1.02387 -0.485,-1.33567 -0.28099,-0.32333 -0.56583,-0.49655 -1.30488,-0.80832 1.00849,-0.24242 1.42036,-0.41186 1.87456,-0.80833 0.39646,-0.34256 0.61202,-0.82373 0.61202,-1.38956 0,-1.34721 -1.00849,-2.08626 -2.84069,-2.08626 l -0.25405,0.42726 c 1.1355,0 1.65899,0.48114 1.65899,1.53198 0,0.80833 -0.33872,1.43188 -0.95073,1.77062 -0.48116,0.28484 -1.16247,0.38492 -2.44041,0.38492 l -0.14237,0.45421 c 0.92379,0 1.52041,0.0578 1.80143,0.16937 0.58121,0.24242 0.9392,0.86609 0.9392,1.63207 0,1.53199 -1.05084,2.46736 -2.78299,2.46736 -0.59662,0 -0.9084,-0.21186 -0.9084,-0.59281 0,-0.17327 0.17323,-0.85449 0.49655,-1.99003 0.18477,-0.63509 0.26943,-0.9623 0.45421,-1.68594 l 0,0 0.14237,-0.4542 0.92382,-3.29106 c 0.0845,-0.31178 0.25404,-0.39647 0.80833,-0.39647 l 0.25405,-0.42725 -3.6606,0 0,0.22698 c 0.88147,0.0691 1.09318,0.18485 1.09318,0.58121 0,0.21156 -0.0577,0.56586 -0.1539,0.90843 l -1.74754,6.27032 c -0.25404,0.82372 -0.35412,0.90842 -1.14706,1.05085 z"
       inkscape:connector-curvature="0"
       style="font-style:normal;font-variant:normal;font-weight:normal;font-stretch:normal;letter-spacing:normal;word-spacing:normal;text-anchor:start;fill:#000000;stroke:none" />
    <path
       sodipodi:type="arc"
       style="fill:#ffffff;fill-opacity:1;fill-rule:nonzero;stroke:#000000;stroke-width:3.40932035;stroke-miterlimit:4;stroke-opacity:1;stroke-dasharray:none;stroke-dashoffset:49.60488189"
       id="path2382-9"
       sodipodi:cx="135"
       sodipodi:cy="158.43361"
       sodipodi:rx="35.714287"
       sodipodi:ry="36.785713"
       d="M 170.71429,158.43361 A 35.714287,36.785713 0 0 1 135,195.21932 35.714287,36.785713 0 0 1 99.285713,158.43361 35.714287,36.785713 0 0 1 135,121.6479 a 35.714287,36.785713 0 0 1 35.71429,36.78571 z"
       transform="matrix(0,-0.59485988,0.57753395,0,-56.64571,300.60579)" />
    <path
       d="m 26.32536,212.99854 0.0539,0.004 0.0539,0.008 0.0539,0.004 0.0501,0.008 0.0501,0.004 0.0462,0.008 0.0962,0.0121 0.0885,0.0121 0.0847,0.0121 0.077,0.0155 0.077,0.0121 0.0693,0.0155 0.0654,0.0155 0.0654,0.0178 0.0577,0.0155 0.0539,0.0178 0.05,0.0178 0.0462,0.0177 0.0423,0.0238 0.0423,0.0238 0.0346,0.0238 0.0347,0.0238 0.027,0.0267 0.027,0.0267 0.0231,0.0308 0.0231,0.0309 0.0193,0.0347 0.0155,0.0347 0.0115,0.0347 0.0115,0.0386 0.008,0.0386 0.008,0.0425 0.004,0.0425 0.004,0.0462 0,0.0462 c 0,0.2887 -0.077,0.74675 -0.2117,1.22789 l -2.3557,8.47596 c -0.34643,1.11241 -0.48115,1.22402 -1.55508,1.4165 l 0,0.30792 4.84997,0 -0.18861,-0.57741 c -0.88532,0 -1.24714,-0.20768 -1.24714,-0.70823 0,-0.24625 0.0962,-0.66975 0.41956,-1.82067 l 2.32107,-8.28345 c 0.11548,-0.41956 0.40416,-0.55813 1.17015,-0.55813 1.09317,0 2.05162,0.25012 2.66364,0.7121 0.94306,0.68901 1.45885,1.89765 1.45885,3.41423 0,2.06703 -0.80449,4.21871 -2.10936,5.51973 -1.13166,1.15093 -2.68289,1.72442 -4.67677,1.72442 l 0.18861,0.57741 c 2.24408,0 4.2957,-0.59276 5.77379,-1.66669 1.85917,-1.36263 2.95234,-3.472 2.95234,-5.69683 0,-3.14478 -2.18634,-5.15791 -5.60058,-5.15791 l -5.32729,0 z"
       id="path3454"
       inkscape:connector-curvature="0"
       style="font-style:normal;font-variant:normal;font-weight:normal;font-stretch:normal;letter-spacing:normal;word-spacing:normal;text-anchor:start;fill:#000000;stroke:none" />
    <path
       d="m 37.57656,227.90646 3.99931,0 c 2.22868,0 3.76066,-1.16246 3.76066,-2.83687 0,-0.52347 -0.16935,-1.02387 -0.485,-1.33567 -0.28098,-0.32332 -0.56583,-0.49654 -1.30488,-0.80832 1.00849,-0.24241 1.42036,-0.41185 1.87456,-0.80832 0.39647,-0.34257 0.61202,-0.82374 0.61202,-1.38957 0,-1.3472 -1.00848,-2.08626 -2.8407,-2.08626 l -0.25404,0.42727 c 1.13551,0 1.659,0.48114 1.659,1.53198 0,0.80832 -0.33873,1.43188 -0.95075,1.77062 -0.48115,0.28484 -1.16246,0.38491 -2.44039,0.38491 l -0.14241,0.45422 c 0.92381,0 1.52043,0.0577 1.80142,0.16937 0.58123,0.24242 0.9392,0.86609 0.9392,1.63207 0,1.53199 -1.05082,2.46734 -2.78296,2.46734 -0.59663,0 -0.90841,-0.21185 -0.90841,-0.59279 0,-0.17328 0.17322,-0.8545 0.49654,-1.99003 0.18476,-0.6351 0.26944,-0.9623 0.45421,-1.68595 l 0,0 0.14241,-0.4542 0.92381,-3.29105 c 0.0847,-0.31179 0.25404,-0.39648 0.80833,-0.39648 l 0.25404,-0.42724 -3.66058,0 0,0.22698 c 0.88146,0.0691 1.09317,0.18485 1.09317,0.58121 0,0.21155 -0.0577,0.56586 -0.15397,0.90843 l -1.74753,6.27032 c -0.25404,0.82372 -0.35413,0.90842 -1.14706,1.05085 z"
       id="path3456"
       inkscape:connector-curvature="0"
       style="font-style:normal;font-variant:normal;font-weight:normal;font-stretch:normal;letter-spacing:normal;word-spacing:normal;text-anchor:start;fill:#000000;stroke:none" />
    <path
       sodipodi:type="arc"
       style="fill:#ffffff;fill-opacity:1;fill-rule:nonzero;stroke:#000000;stroke-width:3.40932035;stroke-miterlimit:4;stroke-opacity:1;stroke-dasharray:none;stroke-dashoffset:49.60488189"
       id="path2452-2"
       sodipodi:cx="135"
       sodipodi:cy="158.43361"
       sodipodi:rx="35.714287"
       sodipodi:ry="36.785713"
       d="M 170.71429,158.43361 A 35.714287,36.785713 0 0 1 135,195.21932 35.714287,36.785713 0 0 1 99.285713,158.43361 35.714287,36.785713 0 0 1 135,121.6479 a 35.714287,36.785713 0 0 1 35.71429,36.78571 z"
       transform="matrix(0,-0.59485988,0.57753395,0,-56.64571,168.25601)" />
    <path
       sodipodi:nodetypes="ccc"
       inkscape:connector-curvature="0"
       inkscape:original-d="m 39.313256,153.83798 c 18.160839,0.1167 17.285151,-17.09059 27.54007,-33.28164 C 79.216808,99.210359 102.29903,56.521841 55.369496,85.076601"
       inkscape:path-effect="#path-effect5561"
       id="path5559"
       d="m 39.313256,153.83798 c 7.13957,-2.50219 13.574199,-6.98327 18.397269,-12.81185 4.82307,-5.82859 8.020856,-12.9881 9.142801,-20.46979 1.910688,-12.74142 -2.469579,-26.274425 -11.48383,-35.479739"
       style="fill:none;stroke:#a40000;stroke-width:2;stroke-linecap:butt;stroke-linejoin:miter;stroke-miterlimit:4;stroke-dasharray:none;stroke-opacity:1" />
    <path
       inkscape:transform-center-x="-4.1114347"
       inkscape:transform-center-y="-1.9602376"
       sodipodi:type="star"
       style="fill:#a40000;fill-opacity:1;fill-rule:nonzero;stroke:#a40000;stroke-width:17.77589226;stroke-linecap:butt;stroke-miterlimit:4;stroke-dasharray:none;stroke-dashoffset:49.60488129;stroke-opacity:1"
       id="path2557"
       sodipodi:sides="3"
       sodipodi:cx="-28.571428"
       sodipodi:cy="4.5050397"
       sodipodi:r1="77.935738"
       sodipodi:r2="38.967869"
       sodipodi:arg1="-2.8343338"
       sodipodi:arg2="-1.7871362"
       inkscape:flatsided="true"
       inkscape:rounded="0"
       inkscape:randomized="0"
       d="M -102.85714,-19.066391 28.984885,-48.042558 -11.842031,80.624068 Z"
       transform="matrix(-0.09060032,0.08048321,-0.08048321,-0.09060032,56.239217,93.225617)" />
    <path
       id="path3630"
       d="m 26.49447,80.648495 0.0538,0.004 0.0539,0.008 0.0538,0.004 0.0501,0.008 0.0501,0.004 0.0462,0.008 0.0963,0.0121 0.0885,0.0121 0.0845,0.0121 0.077,0.0155 0.077,0.0121 0.0693,0.0155 0.0654,0.0155 0.0654,0.0178 0.0577,0.0155 0.0538,0.0178 0.0501,0.0178 0.0462,0.0177 0.0423,0.0238 0.0423,0.0238 0.0347,0.0238 0.0347,0.0238 0.027,0.0267 0.0269,0.0267 0.0232,0.0308 0.0232,0.0309 0.0193,0.0347 0.0155,0.0347 0.0121,0.0347 0.0121,0.0386 0.007,0.0386 0.007,0.0425 0.004,0.0425 0.004,0.0462 0,0.0462 c 0,0.2887 -0.077,0.74675 -0.21172,1.22789 l -2.35569,8.47596 c -0.34643,1.11241 -0.48115,1.22402 -1.55508,1.4165 l 0,0.30792 4.84998,0 -0.18862,-0.57741 c -0.88531,0 -1.24713,-0.20768 -1.24713,-0.70823 0,-0.24625 0.0963,-0.66975 0.41956,-1.82067 l 2.32107,-8.28345 c 0.11559,-0.41956 0.40415,-0.55813 1.17014,-0.55813 1.09317,0 2.05163,0.25012 2.66364,0.7121 0.94306,0.68901 1.45885,1.89765 1.45885,3.41423 0,2.06703 -0.80448,4.21871 -2.10936,5.51973 -1.13167,1.15093 -2.68288,1.72442 -4.67677,1.72442 l 0.18862,0.57741 c 2.24408,0 4.29571,-0.59276 5.77379,-1.66669 1.85917,-1.36263 2.95234,-3.472 2.95234,-5.69683 0,-3.14478 -2.18634,-5.15791 -5.60059,-5.15791 l -5.32616,0 z"
       inkscape:connector-curvature="0"
       style="font-style:normal;font-variant:normal;font-weight:normal;font-stretch:normal;letter-spacing:normal;word-spacing:normal;text-anchor:start;fill:#000000;stroke:none" />
    <path
       id="path3632"
       d="m 45.85977,95.329325 -0.073,-0.008 -0.0693,-0.008 -0.0655,-0.008 -0.0615,-0.008 -0.0615,-0.008 -0.0539,-0.0121 -0.0501,-0.0121 -0.05,-0.0121 -0.0423,-0.0155 -0.0423,-0.0155 -0.0423,-0.0177 -0.0347,-0.018 -0.0346,-0.0238 -0.0347,-0.0267 -0.0308,-0.0267 -0.0271,-0.0308 -0.0271,-0.0308 -0.0232,-0.0347 -0.0232,-0.0384 -0.0232,-0.0425 -0.0193,-0.0462 -0.0193,-0.0502 -0.0193,-0.054 -0.0193,-0.0577 -0.0155,-0.0617 -0.0155,-0.0654 -0.0193,-0.0695 -0.0155,-0.0729 -0.007,-0.0386 -0.007,-0.0425 -0.007,-0.0386 -0.007,-0.0425 -0.0121,-0.0462 -0.007,-0.0462 -0.007,-0.0462 -0.007,-0.0462 -1.33567,-8.03327 -0.36568,0 -4.11477,7.0979 c -1.12397,1.8861 -1.26641,2.04392 -1.83223,2.15557 l 0,0.22697 2.65209,0 0,-0.22697 c -0.72364,-0.0695 -0.83527,-0.14238 -0.83527,-0.49657 0,-0.26941 0.0423,-0.39647 0.28098,-0.8776 l 0.81218,-1.60513 3.1217,0 -0.073,-0.51193 -2.75219,0 2.12861,-3.68752 0.62358,3.68752 0.073,0.51193 0.28098,1.85916 c 0.0155,0.12691 0.0308,0.254 0.0308,0.36954 0,0.53888 -0.20017,0.6659 -1.10857,0.7506 l 0,0.22697 3.49122,0 z"
       inkscape:connector-curvature="0"
       style="font-style:normal;font-variant:normal;font-weight:normal;font-stretch:normal;letter-spacing:normal;word-spacing:normal;text-anchor:start;fill:#000000;stroke:none" />
    <rect
       y="38.462502"
       x="-279.49365"
       height="20.700619"
       width="65.491646"
       id="rect3057-1-0"
       style="fill:#ffffff;fill-opacity:1;stroke:#000000;stroke-width:0.91299999;stroke-miterlimit:4;stroke-opacity:1;stroke-dasharray:none" />
    <path
       id="path5334"
       d="m -248.91301,51.707317 0.0563,-0.01609 0.0563,-0.01609 0.0536,-0.01341 0.051,-0.01609 0.10457,-0.02681 0.0965,-0.02413 0.0992,-0.02413 0.0965,-0.02145 0.0965,-0.02145 0.0965,-0.01877 0.0992,-0.01877 0.10458,-0.01609 0.0536,-0.008 0.0563,-0.01073 0.0563,-0.008 0.059,-0.008 0.059,-0.008 0.0617,-0.008 0.0643,-0.008 0.0643,-0.008 0.0697,-0.008 0.0697,-0.008 0.0751,-0.01073 0.0751,-0.008 0.82852,-0.107254 0,-0.305672 c -0.61402,-0.04022 -0.78831,-0.214507 -0.78831,-0.774907 l 0,-7.67935 -2.87171,0 0,0.31908 c 0.89557,0.06703 1.01623,0.160879 1.01623,0.774906 l 0,2.445379 c -0.57649,-0.616707 -0.976,-0.828533 -1.59004,-0.828533 -1.46937,0 -2.56335,1.429154 -2.56335,3.365079 0,1.817947 1.01355,3.139846 2.41588,3.139846 0.70788,0 1.1503,-0.214507 1.77773,-0.88216 l -0.33517,-0.321761 c -0.26813,0.308354 -0.54699,0.455827 -0.84194,0.455827 -0.70787,0 -1.04035,-0.801719 -1.04035,-2.499006 0,-1.721418 0.3593,-2.509731 1.1342,-2.509731 0.44242,0 0.85535,0.319079 1.04304,0.828533 l 0,3.244418 c 0,0.08044 -0.13407,0.308354 -0.29495,0.479959 l 0.33517,0.321761 z"
       inkscape:connector-curvature="0"
       style="font-style:normal;font-variant:normal;font-weight:normal;font-stretch:normal;letter-spacing:normal;word-spacing:normal;text-anchor:start;fill:#000000;stroke:none" />
    <path
       id="path5338"
       d="m -246.27994,55.286902 2.78591,0 c 1.5525,0 2.61968,-0.809764 2.61968,-1.976146 0,-0.364662 -0.11799,-0.713235 -0.33785,-0.930424 -0.19574,-0.225232 -0.39416,-0.345892 -0.90898,-0.563081 0.70251,-0.168924 0.98941,-0.286903 1.30581,-0.56308 0.27618,-0.238639 0.42633,-0.573806 0.42633,-0.967963 0,-0.938468 -0.70251,-1.453285 -1.97883,-1.453285 l -0.17696,0.297628 c 0.791,0 1.15565,0.335167 1.15565,1.067172 0,0.563081 -0.23595,0.997458 -0.66229,1.233416 -0.33516,0.198419 -0.80976,0.268134 -1.69996,0.268134 l -0.0992,0.316397 c 0.64352,0 1.05913,0.04022 1.25486,0.117979 0.40489,0.168924 0.65425,0.603301 0.65425,1.136887 0,1.067173 -0.73201,1.718738 -1.93861,1.718738 -0.41561,0 -0.63279,-0.147474 -0.63279,-0.412926 0,-0.120661 0.12066,-0.595257 0.34589,-1.386252 0.1287,-0.44242 0.18769,-0.670334 0.3164,-1.174426 l 0,0 0.0992,-0.316397 0.64352,-2.292544 c 0.059,-0.217188 0.17696,-0.276178 0.56308,-0.276178 l 0.17696,-0.297628 -2.54995,0 0,0.158199 c 0.61403,0.04827 0.76151,0.128704 0.76151,0.404882 0,0.147473 -0.0402,0.394156 -0.10726,0.632795 l -1.21733,4.367899 c -0.17696,0.573806 -0.24668,0.632796 -0.79904,0.732005 z"
       inkscape:connector-curvature="0"
       style="font-style:normal;font-variant:normal;font-weight:normal;font-stretch:normal;letter-spacing:normal;word-spacing:normal;text-anchor:start;fill:#000000;stroke:none" />
    <rect
       y="38.462505"
       x="22.108932"
       height="20.700619"
       width="65.491646"
       id="rect3057-1-5-5"
       style="fill:#ffffff;fill-opacity:1;stroke:#ff0000;stroke-width:0.91299999;stroke-miterlimit:4;stroke-opacity:1;stroke-dasharray:none" />
    <path
       style="font-style:normal;font-variant:normal;font-weight:normal;font-stretch:normal;letter-spacing:normal;word-spacing:normal;text-anchor:start;fill:#ff0000;fill-opacity:1;stroke:none"
       inkscape:connector-curvature="0"
       id="path3936-2-3"
       d="m 52.75516,51.64574 0.0578,-0.0165 0.0578,-0.0165 0.055,-0.0138 0.0523,-0.0165 0.10732,-0.0275 0.0991,-0.0248 0.10181,-0.0248 0.0991,-0.022 0.0991,-0.022 0.0991,-0.0193 0.10181,-0.0193 0.10732,-0.0165 0.055,-0.008 0.0578,-0.011 0.0578,-0.008 0.0605,-0.008 0.0605,-0.008 0.0633,-0.008 0.066,-0.008 0.066,-0.008 0.0716,-0.008 0.0716,-0.008 0.077,-0.011 0.0771,-0.008 0.85029,-0.11007 0,-0.3137 c -0.63015,-0.0413 -0.80902,-0.22014 -0.80902,-0.79525 l 0,-7.881 -2.94712,0 0,0.32746 c 0.91909,0.0688 1.04292,0.1651 1.04292,0.79525 l 0,2.50959 c -0.59163,-0.6329 -1.00164,-0.85029 -1.63179,-0.85029 -1.50796,0 -2.63067,1.46668 -2.63067,3.45344 0,1.86569 1.04016,3.2223 2.47932,3.2223 0.72647,0 1.1805,-0.22014 1.82441,-0.90533 l -0.34397,-0.33021 c -0.27517,0.31645 -0.56135,0.4678 -0.86404,0.4678 -0.72647,0 -1.06768,-0.82277 -1.06768,-2.56463 0,-1.76662 0.36873,-2.57563 1.16399,-2.57563 0.45403,0 0.8778,0.32746 1.07043,0.85029 l 0,3.32961 c 0,0.0826 -0.13759,0.31645 -0.3027,0.49256 l 0.34397,0.33021 z" />
    <path
       style="font-style:normal;font-variant:normal;font-weight:normal;font-stretch:normal;letter-spacing:normal;word-spacing:normal;text-anchor:start;fill:#ff0000;fill-opacity:1;stroke:none"
       inkscape:connector-curvature="0"
       id="path3940-6-1"
       d="m 61.25806,55.43214 -0.0523,-0.006 -0.0495,-0.006 -0.0468,-0.006 -0.044,-0.005 -0.044,-0.006 -0.0385,-0.008 -0.0358,-0.008 -0.0358,-0.008 -0.0303,-0.011 -0.0303,-0.011 -0.0303,-0.0138 -0.0248,-0.0138 -0.0248,-0.0165 -0.0248,-0.0193 -0.022,-0.0193 -0.0193,-0.022 -0.0192,-0.022 -0.0165,-0.0248 -0.0165,-0.0275 -0.0165,-0.0303 -0.0138,-0.033 -0.0138,-0.0358 -0.0138,-0.0385 -0.0138,-0.0413 -0.011,-0.044 -0.011,-0.0468 -0.0138,-0.0495 -0.011,-0.0523 -0.006,-0.0275 -0.006,-0.0303 -0.006,-0.0275 -0.006,-0.0303 -0.008,-0.033 -0.006,-0.033 -0.006,-0.033 -0.006,-0.033 -0.95486,-5.7429 -0.26141,0 -2.94162,5.07422 c -0.80351,1.34836 -0.90532,1.46118 -1.30983,1.54098 l 0,0.16235 1.89595,0 0,-0.16235 c -0.51732,-0.0495 -0.59712,-0.10182 -0.59712,-0.35498 0,-0.19262 0.0303,-0.28343 0.20087,-0.6274 l 0.58062,-1.14747 2.23167,0 -0.0523,-0.36598 -1.9675,0 1.52171,-2.63618 0.44579,2.63618 0.0523,0.36598 0.20087,1.32909 c 0.011,0.0908 0.022,0.18162 0.022,0.26417 0,0.38524 -0.14309,0.47605 -0.7925,0.53659 l 0,0.16235 2.49583,0 z" />
    <rect
       style="fill:#ffffff;fill-opacity:1;stroke:#ff0000;stroke-width:0.91299999;stroke-miterlimit:4;stroke-dasharray:none;stroke-opacity:1"
       id="rect4347"
       width="65.491646"
       height="20.700619"
       x="22.108932"
       y="250.56949" />
    <path
       style="font-style:normal;font-variant:normal;font-weight:normal;font-stretch:normal;letter-spacing:normal;word-spacing:normal;text-anchor:start;fill:#ff0000;fill-opacity:1;stroke:none"
       inkscape:connector-curvature="0"
       d="m 52.689676,263.8143 0.0563,-0.0161 0.0563,-0.0161 0.0536,-0.0134 0.051,-0.0161 0.10457,-0.0268 0.0965,-0.0241 0.0992,-0.0241 0.0965,-0.0214 0.0965,-0.0215 0.0965,-0.0188 0.0992,-0.0188 0.10458,-0.0161 0.0536,-0.008 0.0563,-0.0107 0.0563,-0.008 0.059,-0.008 0.059,-0.008 0.0617,-0.008 0.0643,-0.008 0.0643,-0.008 0.0697,-0.008 0.0697,-0.008 0.0751,-0.0107 0.0751,-0.008 0.82852,-0.10726 0,-0.30567 c -0.61402,-0.0402 -0.78831,-0.21451 -0.78831,-0.77491 l 0,-7.67935 -2.87171,0 0,0.31908 c 0.89557,0.067 1.01623,0.16088 1.01623,0.77491 l 0,2.44538 c -0.57649,-0.61671 -0.976,-0.82853 -1.59004,-0.82853 -1.46937,0 -2.56335,1.42915 -2.56335,3.36507 0,1.81795 1.01355,3.13985 2.41588,3.13985 0.70788,0 1.1503,-0.21451 1.77773,-0.88216 l -0.33517,-0.32176 c -0.26813,0.30835 -0.54699,0.45583 -0.84194,0.45583 -0.70787,0 -1.04035,-0.80172 -1.04035,-2.49901 0,-1.72142 0.3593,-2.50973 1.1342,-2.50973 0.44242,0 0.85535,0.31908 1.04304,0.82853 l 0,3.24442 c 0,0.0804 -0.13407,0.30835 -0.29495,0.47996 l 0.33517,0.32176 z"
       id="path4351" />
    <path
       style="font-style:normal;font-variant:normal;font-weight:normal;font-stretch:normal;letter-spacing:normal;word-spacing:normal;text-anchor:start;fill:#ff0000;fill-opacity:1;stroke:none"
       inkscape:connector-curvature="0"
       d="m 55.322746,267.39389 2.78591,0 c 1.5525,0 2.61968,-0.80977 2.61968,-1.97615 0,-0.36466 -0.11799,-0.71323 -0.33785,-0.93042 -0.19574,-0.22523 -0.39416,-0.34589 -0.90898,-0.56308 0.70251,-0.16893 0.98941,-0.28691 1.30581,-0.56308 0.27618,-0.23864 0.42633,-0.57381 0.42633,-0.96797 0,-0.93846 -0.70251,-1.45328 -1.97883,-1.45328 l -0.17696,0.29763 c 0.791,0 1.15565,0.33516 1.15565,1.06717 0,0.56308 -0.23595,0.99746 -0.66229,1.23341 -0.33516,0.19842 -0.80976,0.26814 -1.69996,0.26814 l -0.0992,0.3164 c 0.64352,0 1.05913,0.0402 1.25486,0.11798 0.40489,0.16892 0.65425,0.6033 0.65425,1.13688 0,1.06717 -0.73201,1.71874 -1.93861,1.71874 -0.41561,0 -0.63279,-0.14747 -0.63279,-0.41293 0,-0.12066 0.12066,-0.59525 0.34589,-1.38625 0.1287,-0.44242 0.18769,-0.67033 0.3164,-1.17442 l 0,0 0.0992,-0.3164 0.64352,-2.29254 c 0.059,-0.21719 0.17696,-0.27618 0.56308,-0.27618 l 0.17696,-0.29763 -2.54995,0 0,0.1582 c 0.61403,0.0483 0.76151,0.1287 0.76151,0.40488 0,0.14747 -0.0402,0.39416 -0.10726,0.6328 l -1.21733,4.36789 c -0.17696,0.57381 -0.24668,0.6328 -0.79904,0.73201 z"
       id="path4355" />
    <path
       inkscape:connector-curvature="0"
       inkscape:connector-type="polyline"
       id="path4001"
       d="m -245.51812,220.85602 0,0"
       style="fill:none;stroke:#000000;stroke-width:1px;stroke-linecap:butt;stroke-linejoin:miter;stroke-opacity:1"
       inkscape:connection-end-point="d4"
       inkscape:connection-start-point="d4" />
    <g
       id="g4726">
      <path
         transform="translate(-329.71034,4.01379)"
         sodipodi:nodetypes="cssc"
         inkscape:connector-curvature="0"
         inkscape:original-d="m 103.71515,222.9365 c 7.45055,-0.83505 15.05548,-0.0974 22.52988,-0.77689 21.90514,-1.99138 37.30889,-16.94836 50.10956,-33.40638 4.01952,-5.16795 7.76893,-9.50593 7.76893,-16.31474"
         inkscape:path-effect="#path-effect4553"
         id="path4551"
         d="m 103.71515,222.9365 c 7.49429,0.84007 15.11126,0.57742 22.52988,-0.77689 20.31601,-3.7088 39.00196,-15.99614 50.10956,-33.40638 3.24792,-5.09085 5.86391,-10.58442 7.76893,-16.31474"
         style="fill:none;stroke:#00007e;stroke-width:2;stroke-linecap:butt;stroke-linejoin:miter;stroke-opacity:1;stroke-miterlimit:4;stroke-dasharray:2,2;stroke-dashoffset:0" />
      <path
         transform="matrix(0.11317561,-0.04332709,0.04332709,0.11317561,-146.98699,184.68044)"
         d="M -102.85714,-19.066391 28.984885,-48.042558 -11.842031,80.624068 Z"
         inkscape:randomized="0"
         inkscape:rounded="0"
         inkscape:flatsided="true"
         sodipodi:arg2="-1.7871362"
         sodipodi:arg1="-2.8343338"
         sodipodi:r2="38.967869"
         sodipodi:r1="77.935738"
         sodipodi:cy="4.5050397"
         sodipodi:cx="-28.571428"
         sodipodi:sides="3"
         id="path3285-5-5-4-1"
         style="fill:#00007e;fill-opacity:1;fill-rule:nonzero;stroke:#00007e;stroke-width:17.77589226;stroke-linecap:butt;stroke-miterlimit:4;stroke-opacity:1;stroke-dasharray:none;stroke-dashoffset:49.60488189"
         sodipodi:type="star"
         inkscape:transform-center-x="4.3552087"
         inkscape:transform-center-y="3.9129921" />
    </g>
    <path
       transform="translate(100.84,-1.159302)"
       inkscape:connection-end-point="d4"
       inkscape:connection-start-point="d4"
       inkscape:connector-curvature="0"
       inkscape:connector-type="polyline"
       id="path4143"
       d="m -65.985245,89.107467 0,0"
       style="fill:none;stroke:#000000;stroke-width:1px;stroke-linecap:butt;stroke-linejoin:miter;stroke-opacity:1" />
    <rect
       y="133.40942"
       x="-86.473839"
       height="20.700619"
       width="65.491646"
       id="rect3057-1-0-2-8"
       style="fill:#ffffff;fill-opacity:1;stroke:#000000;stroke-width:0.91299999;stroke-miterlimit:4;stroke-opacity:1;stroke-dasharray:none" />
    <path
       style="font-style:normal;font-variant:normal;font-weight:normal;font-stretch:normal;letter-spacing:normal;word-spacing:normal;text-anchor:start;fill:#000000;stroke:none"
       inkscape:connector-curvature="0"
       d="m -55.950052,146.73026 0.05778,-0.0165 0.05779,-0.0165 0.05504,-0.0138 0.05228,-0.0165 0.107317,-0.0275 0.09906,-0.0248 0.101814,-0.0248 0.09906,-0.022 0.09906,-0.022 0.09906,-0.0193 0.101814,-0.0193 0.107319,-0.0165 0.05504,-0.008 0.05779,-0.011 0.05779,-0.008 0.06054,-0.008 0.06054,-0.008 0.06329,-0.008 0.06604,-0.008 0.06604,-0.008 0.07155,-0.008 0.07155,-0.008 0.07705,-0.011 0.07705,-0.008 0.850289,-0.11007 0,-0.3137 c -0.630149,-0.0413 -0.809013,-0.22014 -0.809013,-0.79526 l 0,-7.88099 -2.947119,0 0,0.32745 c 0.919083,0.0688 1.042912,0.16511 1.042912,0.79526 l 0,2.50959 c -0.591626,-0.6329 -1.001635,-0.85029 -1.631786,-0.85029 -1.507955,0 -2.630668,1.46668 -2.630668,3.45344 0,1.86568 1.04016,3.22229 2.479323,3.22229 0.72646,0 1.180499,-0.22014 1.824407,-0.90532 l -0.343969,-0.33021 c -0.275174,0.31645 -0.561355,0.4678 -0.864047,0.4678 -0.726461,0 -1.067677,-0.82277 -1.067677,-2.56463 0,-1.76662 0.368733,-2.57563 1.163988,-2.57563 0.454038,0 0.877807,0.32745 1.070429,0.85029 l 0,3.32961 c 0,0.0825 -0.137588,0.31645 -0.302693,0.49256 l 0.343969,0.33021 z"
       id="path3680" />
    <path
       style="font-style:normal;font-variant:normal;font-weight:normal;font-stretch:normal;letter-spacing:normal;word-spacing:normal;text-anchor:start;fill:#000000;stroke:none"
       inkscape:connector-curvature="0"
       d="m -53.247838,150.40384 2.859063,0 c 1.593261,0 2.688456,-0.83103 2.688456,-2.02804 0,-0.37423 -0.121077,-0.73196 -0.34672,-0.95485 -0.200877,-0.23115 -0.404507,-0.35498 -0.932842,-0.57787 0.720957,-0.17336 1.015394,-0.29444 1.3401,-0.57787 0.28343,-0.2449 0.437528,-0.58887 0.437528,-0.99338 0,-0.96311 -0.720958,-1.49144 -2.030789,-1.49144 l -0.181615,0.30544 c 0.811765,0 1.186003,0.34397 1.186003,1.0952 0,0.57786 -0.242154,1.02365 -0.679681,1.2658 -0.343969,0.20363 -0.831028,0.27517 -1.744607,0.27517 l -0.101815,0.32471 c 0.660419,0 1.08694,0.0413 1.287817,0.12108 0.415514,0.17336 0.671426,0.61914 0.671426,1.16674 0,1.09519 -0.751227,1.76386 -1.989511,1.76386 -0.426521,0 -0.649413,-0.15134 -0.649413,-0.42376 0,-0.12383 0.123829,-0.61089 0.354976,-1.42266 0.132083,-0.45403 0.192622,-0.68793 0.324705,-1.20526 l 0,0 0.101815,-0.32471 0.660419,-2.35274 c 0.06054,-0.22289 0.181615,-0.28343 0.577866,-0.28343 l 0.181615,-0.30544 -2.616909,0 0,0.16235 c 0.63015,0.0495 0.781495,0.13208 0.781495,0.41551 0,0.15135 -0.04128,0.40451 -0.11007,0.64942 l -1.249292,4.48259 c -0.181615,0.58887 -0.253161,0.64941 -0.82002,0.75123 z"
       id="path3684" />
    <rect
       y="154.13263"
       x="-86.474693"
       height="20.700619"
       width="65.491646"
       id="rect3057-1-0-2-8-9"
       style="fill:#ffffff;fill-opacity:1;stroke:#000000;stroke-width:0.91299999;stroke-miterlimit:4;stroke-opacity:1;stroke-dasharray:none" />
    <path
       id="path3434"
       d="m -55.828456,167.31586 0.05779,-0.0165 0.05778,-0.0165 0.05504,-0.0138 0.05228,-0.0165 0.107317,-0.0275 0.09906,-0.0248 0.101815,-0.0248 0.09906,-0.022 0.09906,-0.022 0.09906,-0.0193 0.101815,-0.0193 0.107318,-0.0165 0.05504,-0.008 0.05778,-0.011 0.05778,-0.008 0.06054,-0.008 0.06054,-0.008 0.06329,-0.008 0.06604,-0.008 0.06605,-0.008 0.07155,-0.008 0.07155,-0.008 0.07705,-0.011 0.07705,-0.008 0.850289,-0.11007 0,-0.31369 c -0.63015,-0.0413 -0.809013,-0.22014 -0.809013,-0.79526 l 0,-7.881 -2.947119,0 0,0.32746 c 0.919082,0.0688 1.042912,0.1651 1.042912,0.79525 l 0,2.5096 c -0.591626,-0.63291 -1.001636,-0.85029 -1.631786,-0.85029 -1.507954,0 -2.630664,1.46668 -2.630664,3.45344 0,1.86568 1.04016,3.22229 2.479318,3.22229 0.726461,0 1.180499,-0.22014 1.824407,-0.90532 l -0.343968,-0.33021 c -0.275174,0.31645 -0.561356,0.46779 -0.864048,0.46779 -0.72646,0 -1.067677,-0.82277 -1.067677,-2.56462 0,-1.76662 0.368734,-2.57564 1.163988,-2.57564 0.454039,0 0.877807,0.32746 1.07043,0.85029 l 0,3.32962 c 0,0.0825 -0.137588,0.31645 -0.302693,0.49256 l 0.343968,0.33021 z"
       inkscape:connector-curvature="0"
       style="font-style:normal;font-variant:normal;font-weight:normal;font-stretch:normal;letter-spacing:normal;word-spacing:normal;text-anchor:start;fill:#000000;stroke:none" />
    <path
       id="path3438"
       d="m -47.325563,171.10226 -0.05228,-0.006 -0.04953,-0.006 -0.04678,-0.006 -0.04403,-0.006 -0.04403,-0.006 -0.03852,-0.008 -0.03577,-0.008 -0.03577,-0.008 -0.03027,-0.011 -0.03027,-0.011 -0.03027,-0.0138 -0.02477,-0.0138 -0.02477,-0.0165 -0.02477,-0.0193 -0.02201,-0.0193 -0.01927,-0.022 -0.01927,-0.022 -0.01651,-0.0248 -0.01651,-0.0275 -0.01651,-0.0303 -0.01376,-0.033 -0.01376,-0.0358 -0.01376,-0.0385 -0.01376,-0.0413 -0.01101,-0.044 -0.011,-0.0468 -0.01376,-0.0495 -0.011,-0.0523 -0.0055,-0.0275 -0.0055,-0.0303 -0.0055,-0.0275 -0.0055,-0.0303 -0.0083,-0.033 -0.0055,-0.033 -0.0055,-0.033 -0.0055,-0.033 -0.954855,-5.7429 -0.261416,0 -2.941615,5.07422 c -0.80351,1.34836 -0.905325,1.46118 -1.309831,1.54098 l 0,0.16235 1.895952,0 0,-0.16235 c -0.517328,-0.0495 -0.597129,-0.10181 -0.597129,-0.35498 0,-0.19262 0.03027,-0.28342 0.200878,-0.62739 l 0.580618,-1.14748 2.231665,0 -0.05228,-0.36598 -1.967498,0 1.521716,-2.63618 0.445782,2.63618 0.05228,0.36598 0.200878,1.32909 c 0.011,0.0908 0.02201,0.18162 0.02201,0.26417 0,0.38524 -0.14309,0.47605 -0.792502,0.53659 l 0,0.16235 2.495832,0 z"
       inkscape:connector-curvature="0"
       style="font-style:normal;font-variant:normal;font-weight:normal;font-stretch:normal;letter-spacing:normal;word-spacing:normal;text-anchor:start;fill:#000000;stroke:none" />
    <path
       sodipodi:type="arc"
       style="fill:none;stroke:none"
       id="path4496"
       sodipodi:cx="-59.878708"
       sodipodi:cy="161.86386"
       sodipodi:rx="6.5921512"
       sodipodi:ry="7.1414971"
       d="m -53.286557,161.86386 a 6.5921512,7.1414971 0 0 1 -6.592151,7.1415 6.5921512,7.1414971 0 0 1 -6.592151,-7.1415 6.5921512,7.1414971 0 0 1 6.592151,-7.1415 6.5921512,7.1414971 0 0 1 6.592151,7.1415 z"
       transform="translate(122.73379,-7.7390449)" />
    <path
       sodipodi:nodetypes="ccc"
       inkscape:connector-curvature="0"
       inkscape:original-d="m 39.313256,153.81231 c 18.160839,-0.1167 17.285151,17.09059 27.54007,33.28164 12.363482,21.34598 35.445704,64.0345 -11.48383,35.47974"
       inkscape:path-effect="#path-effect5561-8"
       id="path5559-7"
       d="m 39.313256,153.81231 c 7.13957,2.50219 13.574199,6.98327 18.397269,12.81185 4.823069,5.82859 8.020856,12.9881 9.142801,20.46979 1.910688,12.74142 -2.469579,26.27443 -11.48383,35.47974"
       style="fill:none;stroke:#a40000;stroke-width:2;stroke-linecap:butt;stroke-linejoin:miter;stroke-miterlimit:4;stroke-dasharray:none;stroke-opacity:1" />
    <path
       inkscape:transform-center-x="-4.1114347"
       inkscape:transform-center-y="-1.9602376"
       sodipodi:type="star"
       style="fill:#a40000;fill-opacity:1;fill-rule:nonzero;stroke:#a40000;stroke-width:17.77589226;stroke-linecap:butt;stroke-miterlimit:4;stroke-dasharray:none;stroke-dashoffset:49.60488129;stroke-opacity:1"
       id="path2557-6"
       sodipodi:sides="3"
       sodipodi:cx="-28.571428"
       sodipodi:cy="4.5050397"
       sodipodi:r1="77.935738"
       sodipodi:r2="38.967869"
       sodipodi:arg1="-2.8343338"
       sodipodi:arg2="-1.7871362"
       inkscape:flatsided="true"
       inkscape:rounded="0"
       inkscape:randomized="0"
       d="M -102.85714,-19.066391 28.984885,-48.042558 -11.842031,80.624068 Z"
       transform="matrix(-0.09060032,-0.08048321,-0.08048321,0.09060032,56.239217,214.42467)" />
    <g
       id="g4651">
      <g
         transform="matrix(0.84857032,0,0,0.84857032,24.189551,8.591985)"
         id="g4570">
        <flowRoot
           xml:space="preserve"
           id="flowRoot3311"
           style="font-style:normal;font-weight:bold;font-size:16.72803497px;font-family:'Bitstream Vera Sans';fill:#00008b;fill-opacity:1;stroke:none"
           transform="translate(-82.49645,3.2960759)"><flowRegion
             id="flowRegion3313"><rect
               id="rect3315"
               width="117.29456"
               height="20.506399"
               x="-330.81711"
               y="120.91496"
               style="font-weight:bold;font-size:16.72803497px;fill:#00008b;fill-opacity:1" /></flowRegion><flowPara
             id="flowPara3317"
             style="font-style:normal;font-variant:normal;font-weight:bold;font-stretch:normal;font-size:15.65943146px;line-height:125%;font-family:Arial;-inkscape-font-specification:'Arial Bold';text-align:start;writing-mode:lr-tb;text-anchor:start;fill:#00008b">MAC phase #1</flowPara></flowRoot>        <path
           inkscape:connector-curvature="0"
           id="path4058"
           d="m -394.66571,149.47162 68.37645,0"
           style="fill:none;stroke:#00007e;stroke-width:2.35690546;stroke-linecap:butt;stroke-linejoin:miter;stroke-miterlimit:4;stroke-opacity:1;stroke-dasharray:2.35690543, 2.35690543;stroke-dashoffset:0" />
        <flowRoot
           xml:space="preserve"
           id="flowRoot3311-3"
           style="font-style:normal;font-weight:bold;font-size:16.72803497px;font-family:'Bitstream Vera Sans';fill:#008000;fill-opacity:1;stroke:none"
           transform="translate(4.8078789,165.89738)"><flowRegion
             id="flowRegion3313-6"><rect
               id="rect3315-7"
               width="117.29456"
               height="20.506399"
               x="-418.10251"
               y="-9.4573927"
               style="font-weight:bold;font-size:16.72803497px;fill:#008000;fill-opacity:1" /></flowRegion><flowPara
             id="flowPara3317-5"
             style="font-style:normal;font-variant:normal;font-weight:bold;font-stretch:normal;font-size:15.65943146px;line-height:125%;font-family:Arial;-inkscape-font-specification:'Arial Bold';text-align:start;writing-mode:lr-tb;text-anchor:start;fill:#008000">MAC phase #2</flowPara></flowRoot>      </g>
      <g
         transform="matrix(0.84857032,0,0,0.84857032,28.760991,8.4718598)"
         id="g4585">
        <g
           id="g3904"
           transform="translate(-67.090776,-128.54695)">
          <flowRoot
             transform="translate(-10.876495,162.37053)"
             style="font-size:17.39936829px;font-style:normal;font-weight:normal;fill:#a40000;fill-opacity:1;stroke:none;font-family:Bitstream Vera Sans"
             id="flowRoot2569"
             xml:space="preserve"><flowRegion
               id="flowRegion2571"><rect
                 style="fill:#a40000;fill-opacity:1"
                 y="159.39218"
                 x="-324.30637"
                 height="20.506399"
                 width="93.210899"
                 id="rect2573" /></flowRegion><flowPara
               style="font-size:15.65943146px;font-style:normal;font-variant:normal;font-weight:bold;font-stretch:normal;text-align:start;line-height:125%;writing-mode:lr-tb;text-anchor:start;font-family:Arial;-inkscape-font-specification:Arial Bold"
               id="flowPara2575">BC phase</flowPara></flowRoot>          <path
             style="fill:none;stroke:#a40000;stroke-width:2.35690546;stroke-linecap:butt;stroke-linejoin:miter;stroke-miterlimit:4;stroke-opacity:1;stroke-dasharray:none;stroke-dashoffset:0"
             d="m -332.95797,347.02329 68.37647,0"
             id="path4058-8"
             inkscape:connector-curvature="0" />
        </g>
      </g>
      <g
         transform="matrix(0.84857032,0,0,0.84857032,16.311187,10.261192)"
         id="g4577">
        <flowRoot
           transform="translate(-74.091484,34.98859)"
           xml:space="preserve"
           id="flowRoot3311-1"
           style="font-size:16.72803497px;font-style:normal;font-weight:bold;fill:#018a1c;fill-opacity:1;stroke:none;font-family:Bitstream Vera Sans"><flowRegion
             id="flowRegion3313-7"><rect
               id="rect3315-4"
               width="109.52564"
               height="15.845044"
               x="-330.81711"
               y="120.91496"
               style="font-size:16.72803497px;font-weight:bold;fill:#018a1c;fill-opacity:1" /></flowRegion><flowPara
             id="flowPara3317-0"
             style="font-size:15.65943146px;font-style:normal;font-variant:normal;font-weight:bold;font-stretch:normal;text-align:start;line-height:125%;writing-mode:lr-tb;text-anchor:start;fill:#018a1c;fill-opacity:1;font-family:Arial;-inkscape-font-specification:Arial Bold">MAC phase #2</flowPara><flowPara
             style="font-size:15.65943146px;font-style:normal;font-variant:normal;font-weight:bold;font-stretch:normal;text-align:start;line-height:125%;writing-mode:lr-tb;text-anchor:start;fill:#018a1c;fill-opacity:1;font-family:Arial;-inkscape-font-specification:Arial Bold"
             id="flowPara3861" /></flowRoot>        <path
           style="fill:none;stroke:#018a1c;stroke-width:2.35690546;stroke-linecap:butt;stroke-linejoin:miter;stroke-miterlimit:4;stroke-opacity:1;stroke-dasharray:4.71381089, 2.35690544;stroke-dashoffset:0"
           d="m -385.38144,178.92343 68.37647,0"
           id="path3889"
           inkscape:connector-curvature="0" />
      </g>
    </g>
    <g
       id="g4730">
      <path
         style="fill:none;stroke:#018a1c;stroke-width:2;stroke-linecap:butt;stroke-linejoin:miter;stroke-miterlimit:4;stroke-opacity:1;stroke-dasharray:4,2;stroke-dashoffset:0"
         d="m -228.32587,79.821317 c 7.49429,-0.840073 15.11126,-0.577419 22.52988,0.77689 20.31601,3.708798 39.00196,15.996139 50.10956,33.406383 3.24792,5.09085 5.86391,10.58442 7.76893,16.31474"
         id="path4555"
         inkscape:path-effect="#path-effect4557"
         inkscape:original-d="m -228.32587,79.821317 c 7.45055,0.83505 15.05548,0.0974 22.52988,0.77689 21.90514,1.99138 37.30889,16.94836 50.10956,33.406383 4.01952,5.16795 7.76893,9.50593 7.76893,16.31474"
         inkscape:connector-curvature="0"
         sodipodi:nodetypes="cssc" />
      <path
         inkscape:transform-center-y="4.1573107"
         inkscape:transform-center-x="4.8303593"
         sodipodi:type="star"
         style="fill:#018a1c;fill-opacity:1;fill-rule:nonzero;stroke:#018a1c;stroke-width:17.77589226;stroke-linecap:butt;stroke-miterlimit:4;stroke-opacity:1;stroke-dasharray:none;stroke-dashoffset:49.60488189"
         id="path4541"
         sodipodi:sides="3"
         sodipodi:cx="-28.571428"
         sodipodi:cy="4.5050397"
         sodipodi:r1="77.935738"
         sodipodi:r2="38.967869"
         sodipodi:arg1="-2.8343338"
         sodipodi:arg2="-1.7871362"
         inkscape:flatsided="true"
         inkscape:rounded="0"
         inkscape:randomized="0"
         d="M -102.85714,-19.066391 28.984885,-48.042558 -11.842031,80.624068 Z"
         transform="matrix(0.11718728,-0.03087228,0.03087228,0.11718728,-148.80858,119.88212)" />
    </g>
  </g>
</svg>
