<?xml version="1.0" encoding="UTF-8" standalone="no"?>
<!-- Created with Inkscape (http://www.inkscape.org/) -->

<svg
   xmlns:dc="http://purl.org/dc/elements/1.1/"
   xmlns:cc="http://creativecommons.org/ns#"
   xmlns:rdf="http://www.w3.org/1999/02/22-rdf-syntax-ns#"
   xmlns:svg="http://www.w3.org/2000/svg"
   xmlns="http://www.w3.org/2000/svg"
   xmlns:sodipodi="http://sodipodi.sourceforge.net/DTD/sodipodi-0.dtd"
   xmlns:inkscape="http://www.inkscape.org/namespaces/inkscape"
   width="417.77078"
   height="300.2373"
   id="svg2"
   inkscape:label="Pozadí"
   sodipodi:version="0.32"
   inkscape:version="0.91 r13725"
   sodipodi:docname="2-SRN-sc_principle_BC-TWT_referenceB1.svg"
   inkscape:output_extension="org.inkscape.output.svg.inkscape"
   version="1.0">
  <sodipodi:namedview
     id="base"
     pagecolor="#ffffff"
     bordercolor="#666666"
     borderopacity="1.0"
     inkscape:pageopacity="0.0"
     inkscape:pageshadow="2"
     inkscape:zoom="1.2871794"
     inkscape:cx="228.22084"
     inkscape:cy="124.88683"
     inkscape:document-units="px"
     inkscape:current-layer="layer1"
     showgrid="false"
     showguides="true"
     inkscape:guide-bbox="true"
     inkscape:window-width="944"
     inkscape:window-height="768"
     inkscape:window-x="358"
     inkscape:window-y="0"
     inkscape:window-maximized="0"
     fit-margin-top="0"
     fit-margin-left="0"
     fit-margin-right="0"
     fit-margin-bottom="0">
    <sodipodi:guide
       orientation="0,1"
       position="501.09542,1070.4964"
       id="guide3158" />
    <sodipodi:guide
       orientation="1,0"
       position="1204.5444,1223.7692"
       id="guide3268" />
    <sodipodi:guide
       orientation="0,1"
       position="769.66685,992.6392"
       id="guide3287" />
    <sodipodi:guide
       orientation="0,1"
       position="661.8097,1000.4963"
       id="guide3289" />
    <sodipodi:guide
       orientation="1,0"
       position="735.37914,1248.1767"
       id="guide2489" />
    <sodipodi:guide
       orientation="0,1"
       position="36.119964,321.53461"
       id="guide2440" />
  </sodipodi:namedview>
  <defs
     id="defs3">
    <inkscape:path-effect
       is_visible="true"
       id="path-effect5561"
       effect="spiro" />
    <inkscape:path-effect
       is_visible="true"
       id="path-effect5557"
       effect="spiro" />
    <inkscape:path-effect
       is_visible="true"
       id="path-effect5553"
       effect="spiro" />
    <inkscape:path-effect
       is_visible="true"
       id="path-effect5549"
       effect="spiro" />
    <inkscape:path-effect
       is_visible="true"
       id="path-effect5545"
       effect="spiro" />
    <inkscape:path-effect
       fuse_tolerance="0"
       vertical_pattern="false"
       prop_units="false"
       tang_offset="0"
       normal_offset="0"
       spacing="0"
       scale_y_rel="false"
       prop_scale="1"
       copytype="single_stretched"
       pattern="M 0,5 C 0,2.24 2.24,0 5,0 7.76,0 10,2.24 10,5 10,7.76 7.76,10 5,10 2.24,10 0,7.76 0,5 z"
       is_visible="true"
       id="path-effect5541"
       effect="skeletal" />
    <inkscape:path-effect
       is_visible="true"
       id="path-effect5539"
       effect="spiro" />
    <inkscape:path-effect
       is_visible="true"
       id="path-effect5561-1"
       effect="spiro" />
    <inkscape:path-effect
       is_visible="true"
       id="path-effect5561-5"
       effect="spiro" />
    <inkscape:path-effect
       is_visible="true"
       id="path-effect5561-14"
       effect="spiro" />
    <inkscape:path-effect
       is_visible="true"
       id="path-effect5561-2"
       effect="spiro" />
    <inkscape:path-effect
       is_visible="true"
       id="path-effect5561-8"
       effect="spiro" />
    <inkscape:path-effect
       is_visible="true"
       id="path-effect4557"
       effect="spiro" />
  </defs>
  <metadata
     id="metadata6">
    <rdf:RDF>
      <cc:Work
         rdf:about="">
        <dc:format>image/svg+xml</dc:format>
        <dc:type
           rdf:resource="http://purl.org/dc/dcmitype/StillImage" />
        <dc:title></dc:title>
      </cc:Work>
    </rdf:RDF>
  </metadata>
  <g
     inkscape:label="Vrstva 1"
     inkscape:groupmode="layer"
     id="layer1"
     transform="translate(329.71034,-4.01379)">
    <rect
       y="25.654301"
       x="-279.49365"
       height="32.025848"
       width="65.491646"
       id="rect3057-4"
       style="fill:#ffffff;fill-opacity:1;stroke:#000000;stroke-width:0.91299999;stroke-miterlimit:4;stroke-dasharray:none;stroke-opacity:1" />
    <path
       style="font-style:normal;font-variant:normal;font-weight:normal;font-stretch:normal;letter-spacing:normal;word-spacing:normal;text-anchor:start;fill:#000000;stroke:none"
       inkscape:connector-curvature="0"
       d="m -248.90485,45.738452 0.0561,-0.01603 0.0561,-0.01603 0.0534,-0.01335 0.0508,-0.01603 0.10418,-0.02671 0.0962,-0.02404 0.0988,-0.02404 0.0962,-0.02137 0.0962,-0.02137 0.0962,-0.0187 0.0988,-0.0187 0.10417,-0.01603 0.0534,-0.008 0.0561,-0.01069 0.0561,-0.008 0.0588,-0.008 0.0588,-0.008 0.0615,-0.008 0.0641,-0.008 0.0641,-0.008 0.0694,-0.008 0.0694,-0.008 0.0748,-0.01069 0.0748,-0.008 0.82542,-0.106849 0,-0.304522 c -0.61172,-0.04007 -0.78535,-0.213699 -0.78535,-0.771988 l 0,-7.650428 -2.86089,0 0,0.317877 c 0.89219,0.06678 1.01239,0.160274 1.01239,0.771989 l 0,2.436169 c -0.57431,-0.614385 -0.97233,-0.825413 -1.58404,-0.825413 -1.46384,0 -2.5537,1.423771 -2.5537,3.352405 0,1.811101 1.00972,3.128021 2.40679,3.128021 0.7052,0 1.14595,-0.213699 1.77102,-0.878837 l -0.3339,-0.320549 c -0.26713,0.307193 -0.54494,0.45411 -0.83877,0.45411 -0.70521,0 -1.03644,-0.7987 -1.03644,-2.489594 0,-1.714935 0.35794,-2.50028 1.12993,-2.50028 0.44076,0 0.85213,0.317878 1.03911,0.825413 l 0,3.232199 c 0,0.08014 -0.13356,0.307193 -0.29383,0.478152 l 0.3339,0.320549 z"
       id="path5612" />
    <path
       style="font-style:normal;font-variant:normal;font-weight:normal;font-stretch:normal;letter-spacing:normal;word-spacing:normal;text-anchor:start;fill:#000000;stroke:none"
       inkscape:connector-curvature="0"
       d="m -246.2817,49.304556 2.77542,0 c 1.54664,0 2.6098,-0.806715 2.6098,-1.968703 0,-0.363289 -0.11753,-0.71055 -0.33658,-0.92692 -0.195,-0.224385 -0.39267,-0.34459 -0.90555,-0.560961 0.69987,-0.168288 0.98569,-0.285822 1.3009,-0.56096 0.27514,-0.23774 0.42473,-0.571644 0.42473,-0.964317 0,-0.934933 -0.69987,-1.447812 -1.97138,-1.447812 l -0.1763,0.296508 c 0.78801,0 1.1513,0.333905 1.1513,1.063153 0,0.56096 -0.23507,0.993701 -0.65979,1.22877 -0.33391,0.197672 -0.80672,0.267124 -1.69357,0.267124 l -0.0988,0.315206 c 0.64109,0 1.05514,0.04007 1.25013,0.117535 0.40337,0.168288 0.65178,0.601028 0.65178,1.132605 0,1.063153 -0.72924,1.712264 -1.93129,1.712264 -0.41405,0 -0.63042,-0.146918 -0.63042,-0.411371 0,-0.120205 0.12021,-0.593015 0.34459,-1.38103 0.12822,-0.440755 0.18699,-0.667809 0.31521,-1.170003 l 0,0 0.0988,-0.315206 0.6411,-2.283909 c 0.0588,-0.216371 0.1763,-0.275138 0.56096,-0.275138 l 0.1763,-0.296508 -2.54035,0 0,0.157604 c 0.61172,0.04809 0.75863,0.128219 0.75863,0.403357 0,0.146918 -0.0401,0.392672 -0.10684,0.630412 l -1.21275,4.351449 c -0.1763,0.571644 -0.24575,0.630412 -0.79603,0.729248 z"
       id="path5616" />
    <path
       sodipodi:nodetypes="cc"
       inkscape:connector-curvature="0"
       inkscape:connector-type="polyline"
       id="path5337"
       d="M -128.75448,154.06546 40.961294,153.89638"
       style="display:inline;fill:none;stroke:#a40000;stroke-width:2;stroke-linecap:butt;stroke-linejoin:miter;stroke-miterlimit:4;stroke-dasharray:none;stroke-opacity:1" />
    <ellipse
       ry="21.244999"
       rx="21.244997"
       cy="-143.70111"
       cx="-154.12482"
       style="fill:#ffffff;fill-opacity:1;fill-rule:nonzero;stroke:#000000;stroke-width:1.99831486;stroke-miterlimit:4;stroke-dasharray:none;stroke-dashoffset:49.60488129;stroke-opacity:1"
       id="path3154"
       transform="matrix(0,-1,1,0,0,0)" />
    <path
       style="font-style:normal;font-variant:normal;font-weight:normal;font-stretch:normal;letter-spacing:normal;word-spacing:normal;text-anchor:start;fill:#000000;stroke:none"
       inkscape:connector-curvature="0"
       d="m -138.34335,160.0764 -0.077,-0.004 -0.077,-0.008 -0.0693,-0.0121 -0.0731,-0.0121 -0.0654,-0.0121 -0.0654,-0.0155 -0.0654,-0.0178 -0.0616,-0.0177 -0.0577,-0.0178 -0.0577,-0.0238 -0.0539,-0.0267 -0.0539,-0.0267 -0.0501,-0.0308 -0.05,-0.0347 -0.0501,-0.0347 -0.0462,-0.0386 -0.0462,-0.0425 -0.0423,-0.0462 -0.0462,-0.0462 -0.0423,-0.0502 -0.0385,-0.054 -0.0385,-0.054 -0.0423,-0.0617 -0.0346,-0.0617 -0.0385,-0.0654 -0.0385,-0.0695 -0.0346,-0.073 -0.0347,-0.0771 -0.0346,-0.0807 -0.0346,-0.0847 -0.0346,-0.0884 -0.0346,-0.0884 -1.78217,-4.69987 c 1.47424,-0.32333 2.10935,-0.59279 2.79836,-1.20866 0.63127,-0.55428 0.97769,-1.30101 0.97769,-2.16709 0,-1.78218 -1.4165,-2.75986 -3.98776,-2.75986 l -0.40417,0.57352 c 1.59357,0 2.37881,0.73137 2.37881,2.15169 0,1.89765 -1.2279,2.87536 -3.62595,2.87536 -0.30408,0 -0.51579,-0.0178 -0.97384,-0.0962 l 1.24329,-4.39193 c 0.11548,-0.4003 0.36567,-0.53887 0.97769,-0.53887 l 0.40417,-0.57355 -4.7576,0 0,0.30794 c 0.80832,0.11535 0.90456,0.13464 1.09316,0.26555 0.15397,0.0961 0.26944,0.32717 0.26944,0.53887 0,0.23084 -0.0962,0.69287 -0.2271,1.20864 l -2.35955,8.47594 c -0.34643,1.13167 -0.48115,1.2433 -1.55508,1.4165 l 0,0.30794 4.68062,0 0,-0.30794 c -1.17015,-0.15406 -1.30487,-0.25012 -1.30487,-0.88147 0,-0.19257 0.0577,-0.43881 0.23095,-1.11241 l 1.07393,-4.00702 1.24714,0.0962 2.3557,6.21257 2.83686,0 z"
       id="path5928" />
    <path
       inkscape:connection-end-point="d4"
       inkscape:connection-start-point="d4"
       inkscape:connector-curvature="0"
       inkscape:connector-type="polyline"
       id="path4005"
       d="M -239.19002,220.84345 26.114945,220.31653"
       style="fill:none;stroke:#00007e;stroke-width:2;stroke-linecap:butt;stroke-linejoin:miter;stroke-miterlimit:4;stroke-dasharray:2, 2;stroke-dashoffset:0;stroke-opacity:1" />
    <flowRoot
       transform="matrix(0.3491483,0,0,0.3491483,110.0489,229.66636)"
       style="font-size:40px;font-style:normal;font-weight:normal;fill:#00007e;fill-opacity:1;stroke:none;font-family:Bitstream Vera Sans"
       id="flowRoot3258-8-1-7"
       xml:space="preserve"><flowRegion
         id="flowRegion3260-5-1-4"><rect
           style="fill:#00007e;fill-opacity:1"
           y="-4.7806745"
           x="-455"
           height="85.714287"
           width="117.85714"
           id="rect3262-1-5-0" /></flowRegion><flowPara
         id="flowPara3264-3-2-9">HSI</flowPara></flowRoot>    <rect
       y="203.99156"
       x="-120.64151"
       height="32.025848"
       width="65.491646"
       id="rect3057"
       style="fill:#ffffff;fill-opacity:1;stroke:#000000;stroke-width:0.91299999;stroke-miterlimit:4;stroke-opacity:1;stroke-dasharray:none" />
    <path
       style="font-style:normal;font-variant:normal;font-weight:normal;font-stretch:normal;letter-spacing:normal;word-spacing:normal;text-anchor:start;fill:#000000;stroke:none"
       inkscape:connector-curvature="0"
       d="m -89.995278,224.06084 0.05781,-0.0165 0.05781,-0.0165 0.05501,-0.0138 0.0523,-0.0165 0.107317,-0.0275 0.09906,-0.0248 0.101816,-0.0248 0.09906,-0.022 0.09907,-0.022 0.09906,-0.0193 0.101808,-0.0193 0.107326,-0.0165 0.05501,-0.008 0.05781,-0.011 0.05781,-0.008 0.06052,-0.008 0.06052,-0.008 0.06332,-0.008 0.06603,-0.008 0.06603,-0.008 0.07154,-0.008 0.07154,-0.008 0.07705,-0.011 0.07705,-0.008 0.850284,-0.11007 0,-0.3137 c -0.630148,-0.0413 -0.809013,-0.22014 -0.809013,-0.79525 l 0,-7.881 -2.947115,0 0,0.32746 c 0.919085,0.0688 1.042914,0.1651 1.042914,0.79525 l 0,2.50959 c -0.591631,-0.6329 -1.001635,-0.85028 -1.631791,-0.85028 -1.507954,0 -2.630664,1.46668 -2.630664,3.45344 0,1.86568 1.04016,3.22229 2.479321,3.22229 0.726463,0 1.1805,-0.22014 1.824405,-0.90532 l -0.343965,-0.33021 c -0.275172,0.31645 -0.561355,0.46779 -0.864049,0.46779 -0.726463,0 -1.067674,-0.82277 -1.067674,-2.56462 0,-1.76662 0.368733,-2.57564 1.163981,-2.57564 0.454045,0 0.877814,0.32746 1.070436,0.85029 l 0,3.32961 c 0,0.0826 -0.137594,0.31645 -0.302694,0.49257 l 0.343965,0.33021 z"
       id="path3198" />
    <path
       style="font-style:normal;font-variant:normal;font-weight:normal;font-stretch:normal;letter-spacing:normal;word-spacing:normal;text-anchor:start;fill:#000000;stroke:none"
       inkscape:connector-curvature="0"
       d="m -81.49238,227.84725 -0.0523,-0.006 -0.0495,-0.006 -0.04679,-0.006 -0.04399,-0.006 -0.04407,-0.006 -0.03857,-0.008 -0.03577,-0.008 -0.03577,-0.008 -0.03026,-0.011 -0.03026,-0.011 -0.03026,-0.0138 -0.02475,-0.0138 -0.02475,-0.0165 -0.02475,-0.0193 -0.02204,-0.0193 -0.01924,-0.022 -0.01924,-0.022 -0.01653,-0.0248 -0.01653,-0.0275 -0.01653,-0.0303 -0.01373,-0.033 -0.01373,-0.0358 -0.01373,-0.0385 -0.01373,-0.0413 -0.01102,-0.044 -0.01102,-0.0468 -0.01373,-0.0495 -0.01102,-0.0523 -0.0058,-0.0275 -0.0058,-0.0303 -0.0058,-0.0275 -0.0058,-0.0303 -0.0082,-0.033 -0.0058,-0.033 -0.0058,-0.033 -0.0058,-0.033 -0.954855,-5.7429 -0.261424,0 -2.941614,5.07422 c -0.803504,1.34836 -0.90532,1.46118 -1.309831,1.54098 l 0,0.16235 1.895953,0 0,-0.16235 c -0.517329,-0.0495 -0.597124,-0.10182 -0.597124,-0.35498 0,-0.19262 0.03026,-0.28343 0.200878,-0.6274 l 0.580613,-1.14747 2.231671,0 -0.0523,-0.36598 -1.967493,0 1.521711,-2.63618 0.445782,2.63618 0.0523,0.36598 0.200878,1.32909 c 0.01102,0.0908 0.02204,0.18162 0.02204,0.26417 0,0.38524 -0.143095,0.47605 -0.792502,0.53659 l 0,0.16235 2.495833,0 z"
       id="path3202" />
    <path
       sodipodi:type="arc"
       style="fill:#ffffff;fill-opacity:1;fill-rule:nonzero;stroke:#000000;stroke-width:3.40932035;stroke-miterlimit:4;stroke-opacity:1;stroke-dasharray:none;stroke-dashoffset:49.60488189"
       id="path2382"
       sodipodi:cx="135"
       sodipodi:cy="158.43361"
       sodipodi:rx="35.714287"
       sodipodi:ry="36.785713"
       d="M 170.71429,158.43361 A 35.714287,36.785713 0 0 1 135,195.21932 35.714287,36.785713 0 0 1 99.285713,158.43361 35.714287,36.785713 0 0 1 135,121.6479 a 35.714287,36.785713 0 0 1 35.71429,36.78571 z"
       transform="matrix(0,-0.59485988,0.57753395,0,-338.24861,300.60579)" />
    <path
       d="m -245.32951,216.93508 0.76599,-3.8184 -0.43881,0 c -0.26944,0.40415 -0.4388,0.50039 -0.86222,0.50039 -0.23095,0 -0.44266,-0.058 -0.88146,-0.21184 -0.42341,-0.17328 -1.03544,-0.26942 -1.63206,-0.26942 -1.99388,0 -3.41039,1.32416 -3.41039,3.20255 0,1.03544 0.28484,1.59356 1.43575,2.8176 0.17322,0.17328 0.42341,0.44266 0.74674,0.80835 0.34643,0.36181 0.61588,0.6505 0.7506,0.80446 0.90071,0.93922 1.15091,1.43962 1.15091,2.26332 0,1.43962 -1.07393,2.54818 -2.47504,2.54818 -1.59356,0 -2.79836,-1.35877 -2.79836,-3.18326 0,-0.15407 0.0193,-0.3041 0.0385,-0.43884 l -0.38492,-0.0385 -0.65051,4.27645 0.34258,0 c 0.13474,-0.44266 0.34642,-0.63513 0.73133,-0.63513 0.20786,0 0.49656,0.0769 0.99694,0.25013 0.88148,0.32717 1.39726,0.44265 1.99389,0.44265 2.20558,0 3.87229,-1.67055 3.87229,-3.83766 0,-1.24328 -0.44266,-1.99386 -2.1671,-3.73754 -1.72444,-1.74368 -1.89765,-2.01316 -1.89765,-2.95235 0,-1.20863 0.80448,-1.95539 2.10936,-1.95539 0.70825,0 1.30487,0.25012 1.70519,0.70824 0.42341,0.48117 0.57738,1.13167 0.61202,2.39808 z"
       id="path3126"
       inkscape:connector-curvature="0"
       style="font-style:normal;font-variant:normal;font-weight:normal;font-stretch:normal;letter-spacing:normal;word-spacing:normal;text-anchor:start;fill:#000000;stroke:none" />
    <path
       d="m -237.06144,228.37489 -0.0731,-0.009 -0.0693,-0.009 -0.0654,-0.009 -0.0616,-0.009 -0.0616,-0.009 -0.0539,-0.012 -0.0501,-0.012 -0.05,-0.012 -0.0423,-0.0155 -0.0423,-0.0155 -0.0423,-0.0179 -0.0346,-0.0179 -0.0346,-0.0237 -0.0346,-0.0266 -0.0308,-0.0266 -0.027,-0.0308 -0.027,-0.0308 -0.0231,-0.0347 -0.0231,-0.0385 -0.0231,-0.0425 -0.0193,-0.0463 -0.0193,-0.0502 -0.0193,-0.054 -0.0193,-0.0578 -0.0155,-0.0617 -0.0155,-0.0655 -0.0193,-0.0691 -0.0155,-0.0731 -0.008,-0.0385 -0.008,-0.0425 -0.008,-0.0385 -0.008,-0.0425 -0.0115,-0.0463 -0.008,-0.0462 -0.008,-0.0463 -0.008,-0.0462 -1.33567,-8.03326 -0.36548,0 -4.11478,7.09787 c -1.12397,1.8861 -1.26639,2.04392 -1.83222,2.15558 l 0,0.22698 2.65209,0 0,-0.22698 c -0.72364,-0.0695 -0.83527,-0.14238 -0.83527,-0.49658 0,-0.2694 0.0423,-0.39645 0.28098,-0.87759 l 0.81218,-1.60513 3.1217,0 -0.0731,-0.51193 -2.75218,0 2.12861,-3.68753 0.62357,3.68753 0.0731,0.51193 0.28098,1.85917 c 0.0155,0.1269 0.0308,0.25397 0.0308,0.36951 0,0.53888 -0.20016,0.6659 -1.10857,0.75062 l 0,0.22698 3.49122,0 z"
       id="path3128"
       inkscape:connector-curvature="0"
       style="font-style:normal;font-variant:normal;font-weight:normal;font-stretch:normal;letter-spacing:normal;word-spacing:normal;text-anchor:start;fill:#000000;stroke:none" />
    <path
       inkscape:connection-end-point="d4"
       inkscape:connection-start-point="d4"
       inkscape:connector-curvature="0"
       inkscape:connector-type="polyline"
       id="path4005-4"
       d="M -237.13151,87.52132 26.291968,87.934727"
       style="display:inline;fill:none;stroke:#018a1c;stroke-width:2;stroke-linecap:butt;stroke-linejoin:miter;stroke-miterlimit:4;stroke-dasharray:2, 2;stroke-dashoffset:0;stroke-opacity:1" />
    <flowRoot
       xml:space="preserve"
       id="flowRoot4198"
       style="font-size:40px;font-style:normal;font-weight:normal;fill:#018a1c;fill-opacity:1;stroke:none;font-family:Bitstream Vera Sans"
       transform="matrix(0.3491483,0,0,0.3491483,110.0489,70.998876)"><flowRegion
         id="flowRegion4200"><rect
           id="rect4202"
           width="117.85714"
           height="85.714287"
           x="-455"
           y="-4.7806745"
           style="fill:#018a1c;fill-opacity:1" /></flowRegion><flowPara
         id="flowPara4204">HSI</flowPara></flowRoot>    <rect
       y="72.310997"
       x="-120.64152"
       height="32.025848"
       width="65.491646"
       id="rect3057-4-4"
       style="fill:#ffffff;fill-opacity:1;stroke:#000000;stroke-width:0.91299999;stroke-miterlimit:4;stroke-dasharray:none;stroke-opacity:1" />
    <path
       style="font-style:normal;font-variant:normal;font-weight:normal;font-stretch:normal;letter-spacing:normal;word-spacing:normal;text-anchor:start;fill:#000000;stroke:none"
       inkscape:connector-curvature="0"
       d="m -90.052713,92.395145 0.05612,-0.01603 0.05612,-0.01603 0.0534,-0.01336 0.05077,-0.01603 0.104178,-0.02671 0.09616,-0.02404 0.09884,-0.02404 0.09616,-0.02137 0.09616,-0.02137 0.09616,-0.01869 0.09884,-0.0187 0.104178,-0.01603 0.0534,-0.008 0.05612,-0.01069 0.05612,-0.008 0.05875,-0.008 0.05875,-0.008 0.06146,-0.008 0.0641,-0.008 0.0641,-0.008 0.06945,-0.008 0.06945,-0.008 0.07479,-0.01069 0.07479,-0.008 0.825416,-0.106849 0,-0.304522 c -0.611712,-0.04007 -0.785344,-0.213699 -0.785344,-0.771988 l 0,-7.650428 -2.860893,0 0,0.317877 c 0.892188,0.06678 1.012394,0.160274 1.012394,0.771989 l 0,2.436169 c -0.574314,-0.614385 -0.972331,-0.825413 -1.584043,-0.825413 -1.463838,0 -2.553704,1.423771 -2.553704,3.352405 0,1.811101 1.009729,3.128021 2.406789,3.128021 0.705201,0 1.145955,-0.213699 1.77103,-0.878837 l -0.333902,-0.320549 c -0.26713,0.307193 -0.54494,0.45411 -0.83877,0.45411 -0.70521,0 -1.036443,-0.7987 -1.036443,-2.489594 0,-1.714935 0.357942,-2.50028 1.129932,-2.50028 0.440754,0 0.852125,0.317878 1.039111,0.825413 l 0,3.232199 c 0,0.08014 -0.13356,0.307193 -0.29383,0.478152 l 0.333902,0.320549 z"
       id="path5612-5" />
    <path
       style="font-style:normal;font-variant:normal;font-weight:normal;font-stretch:normal;letter-spacing:normal;word-spacing:normal;text-anchor:start;fill:#000000;stroke:none"
       inkscape:connector-curvature="0"
       d="m -87.429559,95.961249 2.775418,0 c 1.546646,0 2.6098,-0.806715 2.6098,-1.968703 0,-0.363289 -0.117532,-0.71055 -0.336576,-0.92692 -0.195001,-0.224385 -0.392668,-0.34459 -0.905551,-0.560961 0.699869,-0.168288 0.985686,-0.285822 1.300893,-0.56096 0.275144,-0.23774 0.424733,-0.571644 0.424733,-0.964317 0,-0.934933 -0.699869,-1.447812 -1.971379,-1.447812 l -0.176298,0.296508 c 0.78801,0 1.151303,0.333905 1.151303,1.063153 0,0.56096 -0.235072,0.993701 -0.659797,1.22877 -0.333902,0.197672 -0.806713,0.267124 -1.693569,0.267124 l -0.09883,0.315206 c 0.641095,0 1.05514,0.04007 1.250133,0.117535 0.403365,0.168288 0.651784,0.601028 0.651784,1.132605 0,1.063153 -0.729245,1.712264 -1.9313,1.712264 -0.414045,0 -0.630415,-0.146918 -0.630415,-0.411371 0,-0.120205 0.120207,-0.593015 0.344591,-1.38103 0.12822,-0.440755 0.186987,-0.667809 0.315207,-1.170003 l 0,0 0.09883,-0.315206 0.641103,-2.283909 c 0.05875,-0.216371 0.176298,-0.275138 0.56096,-0.275138 l 0.176298,-0.296508 -2.540345,0 0,0.157604 c 0.611712,0.04809 0.758627,0.128219 0.758627,0.403357 0,0.146918 -0.04007,0.392672 -0.106844,0.630412 l -1.212743,4.351449 c -0.176307,0.571644 -0.245753,0.630412 -0.796033,0.729248 z"
       id="path5616-6" />
    <path
       sodipodi:type="arc"
       style="fill:#ffffff;fill-opacity:1;fill-rule:nonzero;stroke:#000000;stroke-width:3.40932035;stroke-miterlimit:4;stroke-opacity:1;stroke-dasharray:none;stroke-dashoffset:49.60488189"
       id="path2452"
       sodipodi:cx="135"
       sodipodi:cy="158.43361"
       sodipodi:rx="35.714287"
       sodipodi:ry="36.785713"
       d="M 170.71429,158.43361 A 35.714287,36.785713 0 0 1 135,195.21932 35.714287,36.785713 0 0 1 99.285713,158.43361 35.714287,36.785713 0 0 1 135,121.6479 a 35.714287,36.785713 0 0 1 35.71429,36.78571 z"
       transform="matrix(0,-0.59485988,0.57753395,0,-338.24861,168.25602)" />
    <path
       id="path3286"
       d="m -245.67831,83.58364 0.76598,-3.81841 -0.4388,0 c -0.26943,0.40414 -0.43881,0.5004 -0.86223,0.5004 -0.23094,0 -0.44265,-0.0578 -0.88145,-0.21186 -0.42343,-0.17328 -1.03544,-0.2694 -1.63206,-0.2694 -1.99388,0 -3.4104,1.32414 -3.4104,3.20252 0,1.03545 0.28485,1.59359 1.43575,2.81761 0.17322,0.17328 0.42342,0.44266 0.74674,0.80835 0.34644,0.36181 0.61588,0.6505 0.75061,0.80446 0.9007,0.93922 1.15091,1.43962 1.15091,2.26334 0,1.43962 -1.07393,2.54818 -2.47505,2.54818 -1.59355,0 -2.79835,-1.35877 -2.79835,-3.18329 0,-0.15406 0.0193,-0.30409 0.0386,-0.43882 l -0.38494,-0.0385 -0.65051,4.27645 0.34259,0 c 0.1348,-0.44265 0.34642,-0.63514 0.73134,-0.63514 0.20786,0 0.49655,0.0769 0.99694,0.25014 0.88147,0.32718 1.39726,0.44266 1.99389,0.44266 2.20559,0 3.87228,-1.67055 3.87228,-3.83767 0,-1.24328 -0.44266,-1.99387 -2.1671,-3.73755 -1.72443,-1.74368 -1.89764,-2.01315 -1.89764,-2.95235 0,-1.20862 0.80448,-1.95537 2.10936,-1.95537 0.70824,0 1.30487,0.25012 1.70519,0.70824 0.42341,0.48115 0.57738,1.13167 0.61201,2.39806 z"
       inkscape:connector-curvature="0"
       style="font-style:normal;font-variant:normal;font-weight:normal;font-stretch:normal;letter-spacing:normal;word-spacing:normal;text-anchor:start;fill:#000000;stroke:none" />
    <path
       id="path3288"
       d="m -245.52434,95.25053 3.99932,0 c 2.22867,0 3.76065,-1.16245 3.76065,-2.83687 0,-0.52348 -0.16937,-1.02387 -0.485,-1.33567 -0.28099,-0.32333 -0.56583,-0.49655 -1.30488,-0.80832 1.00849,-0.24242 1.42036,-0.41186 1.87456,-0.80833 0.39646,-0.34256 0.61202,-0.82373 0.61202,-1.38956 0,-1.34721 -1.00849,-2.08626 -2.84069,-2.08626 l -0.25405,0.42726 c 1.1355,0 1.65899,0.48114 1.65899,1.53198 0,0.80833 -0.33872,1.43188 -0.95073,1.77062 -0.48116,0.28484 -1.16247,0.38492 -2.44041,0.38492 l -0.14237,0.45421 c 0.92379,0 1.52041,0.0578 1.80143,0.16937 0.58121,0.24242 0.9392,0.86609 0.9392,1.63207 0,1.53199 -1.05084,2.46736 -2.78299,2.46736 -0.59662,0 -0.9084,-0.21186 -0.9084,-0.59281 0,-0.17327 0.17323,-0.85449 0.49655,-1.99003 0.18477,-0.63509 0.26943,-0.9623 0.45421,-1.68594 l 0,0 0.14237,-0.4542 0.92382,-3.29106 c 0.0845,-0.31178 0.25404,-0.39647 0.80833,-0.39647 l 0.25405,-0.42725 -3.6606,0 0,0.22698 c 0.88147,0.0691 1.09318,0.18485 1.09318,0.58121 0,0.21156 -0.0577,0.56586 -0.1539,0.90843 l -1.74754,6.27032 c -0.25404,0.82372 -0.35412,0.90842 -1.14706,1.05085 z"
       inkscape:connector-curvature="0"
       style="font-style:normal;font-variant:normal;font-weight:normal;font-stretch:normal;letter-spacing:normal;word-spacing:normal;text-anchor:start;fill:#000000;stroke:none" />
    <path
       sodipodi:type="arc"
       style="fill:#ffffff;fill-opacity:1;fill-rule:nonzero;stroke:#000000;stroke-width:3.40932035;stroke-miterlimit:4;stroke-opacity:1;stroke-dasharray:none;stroke-dashoffset:49.60488189"
       id="path2382-9"
       sodipodi:cx="135"
       sodipodi:cy="158.43361"
       sodipodi:rx="35.714287"
       sodipodi:ry="36.785713"
       d="M 170.71429,158.43361 A 35.714287,36.785713 0 0 1 135,195.21932 35.714287,36.785713 0 0 1 99.285713,158.43361 35.714287,36.785713 0 0 1 135,121.6479 a 35.714287,36.785713 0 0 1 35.71429,36.78571 z"
       transform="matrix(0,-0.59485988,0.57753395,0,-56.64571,300.60579)" />
    <path
       d="m 26.32536,212.99854 0.0539,0.004 0.0539,0.008 0.0539,0.004 0.0501,0.008 0.0501,0.004 0.0462,0.008 0.0962,0.0121 0.0885,0.0121 0.0847,0.0121 0.077,0.0155 0.077,0.0121 0.0693,0.0155 0.0654,0.0155 0.0654,0.0178 0.0577,0.0155 0.0539,0.0178 0.05,0.0178 0.0462,0.0177 0.0423,0.0238 0.0423,0.0238 0.0346,0.0238 0.0347,0.0238 0.027,0.0267 0.027,0.0267 0.0231,0.0308 0.0231,0.0309 0.0193,0.0347 0.0155,0.0347 0.0115,0.0347 0.0115,0.0386 0.008,0.0386 0.008,0.0425 0.004,0.0425 0.004,0.0462 0,0.0462 c 0,0.2887 -0.077,0.74675 -0.2117,1.22789 l -2.3557,8.47596 c -0.34643,1.11241 -0.48115,1.22402 -1.55508,1.4165 l 0,0.30792 4.84997,0 -0.18861,-0.57741 c -0.88532,0 -1.24714,-0.20768 -1.24714,-0.70823 0,-0.24625 0.0962,-0.66975 0.41956,-1.82067 l 2.32107,-8.28345 c 0.11548,-0.41956 0.40416,-0.55813 1.17015,-0.55813 1.09317,0 2.05162,0.25012 2.66364,0.7121 0.94306,0.68901 1.45885,1.89765 1.45885,3.41423 0,2.06703 -0.80449,4.21871 -2.10936,5.51973 -1.13166,1.15093 -2.68289,1.72442 -4.67677,1.72442 l 0.18861,0.57741 c 2.24408,0 4.2957,-0.59276 5.77379,-1.66669 1.85917,-1.36263 2.95234,-3.472 2.95234,-5.69683 0,-3.14478 -2.18634,-5.15791 -5.60058,-5.15791 l -5.32729,0 z"
       id="path3454"
       inkscape:connector-curvature="0"
       style="font-style:normal;font-variant:normal;font-weight:normal;font-stretch:normal;letter-spacing:normal;word-spacing:normal;text-anchor:start;fill:#000000;stroke:none" />
    <path
       d="m 37.57656,227.90646 3.99931,0 c 2.22868,0 3.76066,-1.16246 3.76066,-2.83687 0,-0.52347 -0.16935,-1.02387 -0.485,-1.33567 -0.28098,-0.32332 -0.56583,-0.49654 -1.30488,-0.80832 1.00849,-0.24241 1.42036,-0.41185 1.87456,-0.80832 0.39647,-0.34257 0.61202,-0.82374 0.61202,-1.38957 0,-1.3472 -1.00848,-2.08626 -2.8407,-2.08626 l -0.25404,0.42727 c 1.13551,0 1.659,0.48114 1.659,1.53198 0,0.80832 -0.33873,1.43188 -0.95075,1.77062 -0.48115,0.28484 -1.16246,0.38491 -2.44039,0.38491 l -0.14241,0.45422 c 0.92381,0 1.52043,0.0577 1.80142,0.16937 0.58123,0.24242 0.9392,0.86609 0.9392,1.63207 0,1.53199 -1.05082,2.46734 -2.78296,2.46734 -0.59663,0 -0.90841,-0.21185 -0.90841,-0.59279 0,-0.17328 0.17322,-0.8545 0.49654,-1.99003 0.18476,-0.6351 0.26944,-0.9623 0.45421,-1.68595 l 0,0 0.14241,-0.4542 0.92381,-3.29105 c 0.0847,-0.31179 0.25404,-0.39648 0.80833,-0.39648 l 0.25404,-0.42724 -3.66058,0 0,0.22698 c 0.88146,0.0691 1.09317,0.18485 1.09317,0.58121 0,0.21155 -0.0577,0.56586 -0.15397,0.90843 l -1.74753,6.27032 c -0.25404,0.82372 -0.35413,0.90842 -1.14706,1.05085 z"
       id="path3456"
       inkscape:connector-curvature="0"
       style="font-style:normal;font-variant:normal;font-weight:normal;font-stretch:normal;letter-spacing:normal;word-spacing:normal;text-anchor:start;fill:#000000;stroke:none" />
    <path
       sodipodi:type="arc"
       style="fill:#ffffff;fill-opacity:1;fill-rule:nonzero;stroke:#000000;stroke-width:3.40932035;stroke-miterlimit:4;stroke-opacity:1;stroke-dasharray:none;stroke-dashoffset:49.60488189"
       id="path2452-2"
       sodipodi:cx="135"
       sodipodi:cy="158.43361"
       sodipodi:rx="35.714287"
       sodipodi:ry="36.785713"
       d="M 170.71429,158.43361 A 35.714287,36.785713 0 0 1 135,195.21932 35.714287,36.785713 0 0 1 99.285713,158.43361 35.714287,36.785713 0 0 1 135,121.6479 a 35.714287,36.785713 0 0 1 35.71429,36.78571 z"
       transform="matrix(0,-0.59485988,0.57753395,0,-56.64571,168.25601)" />
    <path
       sodipodi:nodetypes="ccc"
       inkscape:connector-curvature="0"
       inkscape:original-d="m 39.313256,153.83798 c 18.160839,0.1167 17.285151,-17.09059 27.54007,-33.28164 C 79.216808,99.210359 102.29903,56.521841 55.369496,85.076601"
       inkscape:path-effect="#path-effect5561"
       id="path5559"
       d="m 39.313256,153.83798 c 7.13957,-2.50219 13.574199,-6.98327 18.397269,-12.81185 4.82307,-5.82859 8.020856,-12.9881 9.142801,-20.46979 1.910688,-12.74142 -2.469579,-26.274425 -11.48383,-35.479739"
       style="fill:none;stroke:#a40000;stroke-width:2;stroke-linecap:butt;stroke-linejoin:miter;stroke-miterlimit:4;stroke-dasharray:none;stroke-opacity:1" />
    <path
       inkscape:transform-center-x="-4.1114347"
       inkscape:transform-center-y="-1.9602376"
       sodipodi:type="star"
       style="fill:#a40000;fill-opacity:1;fill-rule:nonzero;stroke:#a40000;stroke-width:17.77589226;stroke-linecap:butt;stroke-miterlimit:4;stroke-dasharray:none;stroke-dashoffset:49.60488129;stroke-opacity:1"
       id="path2557"
       sodipodi:sides="3"
       sodipodi:cx="-28.571428"
       sodipodi:cy="4.5050397"
       sodipodi:r1="77.935738"
       sodipodi:r2="38.967869"
       sodipodi:arg1="-2.8343338"
       sodipodi:arg2="-1.7871362"
       inkscape:flatsided="true"
       inkscape:rounded="0"
       inkscape:randomized="0"
       d="M -102.85714,-19.066391 28.984885,-48.042558 -11.842031,80.624068 Z"
       transform="matrix(-0.09060032,0.08048321,-0.08048321,-0.09060032,56.239217,93.225617)" />
    <path
       id="path3630"
       d="m 26.49447,80.648495 0.0538,0.004 0.0539,0.008 0.0538,0.004 0.0501,0.008 0.0501,0.004 0.0462,0.008 0.0963,0.0121 0.0885,0.0121 0.0845,0.0121 0.077,0.0155 0.077,0.0121 0.0693,0.0155 0.0654,0.0155 0.0654,0.0178 0.0577,0.0155 0.0538,0.0178 0.0501,0.0178 0.0462,0.0177 0.0423,0.0238 0.0423,0.0238 0.0347,0.0238 0.0347,0.0238 0.027,0.0267 0.0269,0.0267 0.0232,0.0308 0.0232,0.0309 0.0193,0.0347 0.0155,0.0347 0.0121,0.0347 0.0121,0.0386 0.007,0.0386 0.007,0.0425 0.004,0.0425 0.004,0.0462 0,0.0462 c 0,0.2887 -0.077,0.74675 -0.21172,1.22789 l -2.35569,8.47596 c -0.34643,1.11241 -0.48115,1.22402 -1.55508,1.4165 l 0,0.30792 4.84998,0 -0.18862,-0.57741 c -0.88531,0 -1.24713,-0.20768 -1.24713,-0.70823 0,-0.24625 0.0963,-0.66975 0.41956,-1.82067 l 2.32107,-8.28345 c 0.11559,-0.41956 0.40415,-0.55813 1.17014,-0.55813 1.09317,0 2.05163,0.25012 2.66364,0.7121 0.94306,0.68901 1.45885,1.89765 1.45885,3.41423 0,2.06703 -0.80448,4.21871 -2.10936,5.51973 -1.13167,1.15093 -2.68288,1.72442 -4.67677,1.72442 l 0.18862,0.57741 c 2.24408,0 4.29571,-0.59276 5.77379,-1.66669 1.85917,-1.36263 2.95234,-3.472 2.95234,-5.69683 0,-3.14478 -2.18634,-5.15791 -5.60059,-5.15791 l -5.32616,0 z"
       inkscape:connector-curvature="0"
       style="font-style:normal;font-variant:normal;font-weight:normal;font-stretch:normal;letter-spacing:normal;word-spacing:normal;text-anchor:start;fill:#000000;stroke:none" />
    <path
       id="path3632"
       d="m 45.85977,95.329325 -0.073,-0.008 -0.0693,-0.008 -0.0655,-0.008 -0.0615,-0.008 -0.0615,-0.008 -0.0539,-0.0121 -0.0501,-0.0121 -0.05,-0.0121 -0.0423,-0.0155 -0.0423,-0.0155 -0.0423,-0.0177 -0.0347,-0.018 -0.0346,-0.0238 -0.0347,-0.0267 -0.0308,-0.0267 -0.0271,-0.0308 -0.0271,-0.0308 -0.0232,-0.0347 -0.0232,-0.0384 -0.0232,-0.0425 -0.0193,-0.0462 -0.0193,-0.0502 -0.0193,-0.054 -0.0193,-0.0577 -0.0155,-0.0617 -0.0155,-0.0654 -0.0193,-0.0695 -0.0155,-0.0729 -0.007,-0.0386 -0.007,-0.0425 -0.007,-0.0386 -0.007,-0.0425 -0.0121,-0.0462 -0.007,-0.0462 -0.007,-0.0462 -0.007,-0.0462 -1.33567,-8.03327 -0.36568,0 -4.11477,7.0979 c -1.12397,1.8861 -1.26641,2.04392 -1.83223,2.15557 l 0,0.22697 2.65209,0 0,-0.22697 c -0.72364,-0.0695 -0.83527,-0.14238 -0.83527,-0.49657 0,-0.26941 0.0423,-0.39647 0.28098,-0.8776 l 0.81218,-1.60513 3.1217,0 -0.073,-0.51193 -2.75219,0 2.12861,-3.68752 0.62358,3.68752 0.073,0.51193 0.28098,1.85916 c 0.0155,0.12691 0.0308,0.254 0.0308,0.36954 0,0.53888 -0.20017,0.6659 -1.10857,0.7506 l 0,0.22697 3.49122,0 z"
       inkscape:connector-curvature="0"
       style="font-style:normal;font-variant:normal;font-weight:normal;font-stretch:normal;letter-spacing:normal;word-spacing:normal;text-anchor:start;fill:#000000;stroke:none" />
    <rect
       y="25.654293"
       x="22.108932"
       height="32.025848"
       width="65.491646"
       id="rect3057-45-9"
       style="fill:#ffffff;fill-opacity:1;stroke:#ff0000;stroke-width:0.91299999;stroke-miterlimit:4;stroke-dasharray:none;stroke-opacity:1" />
    <path
       style="font-style:normal;font-variant:normal;font-weight:normal;font-stretch:normal;letter-spacing:normal;word-spacing:normal;text-anchor:start;fill:#ff0000;fill-opacity:1;stroke:none"
       inkscape:connector-curvature="0"
       d="m 52.75516,45.72356 0.0578,-0.0165 0.0578,-0.0165 0.055,-0.0138 0.0523,-0.0165 0.10731,-0.0275 0.0991,-0.0248 0.10182,-0.0248 0.0991,-0.022 0.0991,-0.022 0.0991,-0.0193 0.10181,-0.0193 0.10733,-0.0165 0.055,-0.008 0.0578,-0.011 0.0578,-0.008 0.0605,-0.008 0.0605,-0.008 0.0633,-0.008 0.066,-0.008 0.066,-0.008 0.0715,-0.008 0.0715,-0.008 0.0771,-0.011 0.077,-0.008 0.85028,-0.11007 0,-0.3137 C 54.79687,44.91699 54.618,44.73815 54.618,44.16304 l 0,-7.881 -2.94712,0 0,0.32746 c 0.91909,0.0688 1.04292,0.1651 1.04292,0.79525 l 0,2.50959 c -0.59163,-0.6329 -1.00164,-0.85028 -1.63179,-0.85028 -1.50796,0 -2.63067,1.46668 -2.63067,3.45344 0,1.86568 1.04016,3.22229 2.47932,3.22229 0.72647,0 1.18051,-0.22014 1.82441,-0.90532 l -0.34396,-0.33021 c -0.27518,0.31645 -0.56136,0.46779 -0.86405,0.46779 -0.72647,0 -1.06768,-0.82277 -1.06768,-2.56462 0,-1.76662 0.36873,-2.57564 1.16398,-2.57564 0.45405,0 0.87782,0.32746 1.07044,0.85029 l 0,3.32961 c 0,0.0826 -0.13759,0.31645 -0.30269,0.49257 l 0.34396,0.33021 z"
       id="path3198-7-3" />
    <path
       style="font-style:normal;font-variant:normal;font-weight:normal;font-stretch:normal;letter-spacing:normal;word-spacing:normal;text-anchor:start;fill:#ff0000;fill-opacity:1;stroke:none"
       inkscape:connector-curvature="0"
       d="m 61.25806,49.50997 -0.0523,-0.006 -0.0495,-0.006 -0.0468,-0.006 -0.044,-0.006 -0.0441,-0.006 -0.0386,-0.008 -0.0358,-0.008 -0.0358,-0.008 -0.0303,-0.011 -0.0303,-0.011 -0.0303,-0.0138 -0.0248,-0.0138 -0.0247,-0.0165 -0.0248,-0.0193 -0.022,-0.0193 -0.0192,-0.022 -0.0192,-0.022 -0.0165,-0.0248 -0.0165,-0.0275 -0.0165,-0.0303 -0.0137,-0.033 -0.0137,-0.0358 -0.0137,-0.0385 -0.0137,-0.0413 -0.011,-0.044 -0.011,-0.0468 -0.0137,-0.0495 -0.011,-0.0523 -0.006,-0.0275 -0.006,-0.0303 -0.006,-0.0275 -0.006,-0.0303 -0.008,-0.033 -0.006,-0.033 -0.006,-0.033 -0.006,-0.033 -0.95486,-5.7429 -0.26142,0 -2.94162,5.07422 c -0.8035,1.34836 -0.90532,1.46118 -1.30983,1.54098 l 0,0.16235 1.89596,0 0,-0.16235 c -0.51733,-0.0495 -0.59713,-0.10182 -0.59713,-0.35498 0,-0.19262 0.0303,-0.28343 0.20088,-0.6274 l 0.58061,-1.14747 2.23167,0 -0.0523,-0.36598 -1.9675,0 1.52171,-2.63618 0.44579,2.63618 0.0523,0.36598 0.20088,1.32909 c 0.011,0.0908 0.022,0.18162 0.022,0.26417 0,0.38524 -0.1431,0.47605 -0.7925,0.53659 l 0,0.16235 2.49583,0 z"
       id="path3202-1-2" />
    <rect
       y="251.76129"
       x="-279.49365"
       height="32.025848"
       width="65.491646"
       id="rect3057-45"
       style="fill:#ffffff;fill-opacity:1;stroke:#000000;stroke-width:0.91299999;stroke-miterlimit:4;stroke-opacity:1;stroke-dasharray:none" />
    <path
       style="font-style:normal;font-variant:normal;font-weight:normal;font-stretch:normal;letter-spacing:normal;word-spacing:normal;text-anchor:start;fill:#000000;stroke:none"
       inkscape:connector-curvature="0"
       d="m -248.84741,271.83054 0.0578,-0.0165 0.0578,-0.0165 0.055,-0.0138 0.0523,-0.0165 0.10731,-0.0275 0.0991,-0.0248 0.10182,-0.0248 0.0991,-0.022 0.0991,-0.022 0.0991,-0.0193 0.10181,-0.0193 0.10733,-0.0165 0.055,-0.008 0.0578,-0.011 0.0578,-0.008 0.0605,-0.008 0.0605,-0.008 0.0633,-0.008 0.066,-0.008 0.066,-0.008 0.0715,-0.008 0.0715,-0.008 0.0771,-0.011 0.077,-0.008 0.85028,-0.11007 0,-0.3137 c -0.63014,-0.0413 -0.80901,-0.22014 -0.80901,-0.79525 l 0,-7.881 -2.94712,0 0,0.32746 c 0.91909,0.0688 1.04292,0.1651 1.04292,0.79525 l 0,2.50959 c -0.59163,-0.6329 -1.00164,-0.85028 -1.63179,-0.85028 -1.50796,0 -2.63067,1.46668 -2.63067,3.45344 0,1.86568 1.04016,3.22229 2.47932,3.22229 0.72647,0 1.18051,-0.22014 1.82441,-0.90532 l -0.34396,-0.33021 c -0.27518,0.31645 -0.56136,0.46779 -0.86405,0.46779 -0.72647,0 -1.06768,-0.82277 -1.06768,-2.56462 0,-1.76662 0.36873,-2.57564 1.16398,-2.57564 0.45405,0 0.87782,0.32746 1.07044,0.85029 l 0,3.32961 c 0,0.0826 -0.13759,0.31645 -0.30269,0.49257 l 0.34396,0.33021 z"
       id="path3198-7" />
    <path
       style="font-style:normal;font-variant:normal;font-weight:normal;font-stretch:normal;letter-spacing:normal;word-spacing:normal;text-anchor:start;fill:#000000;stroke:none"
       inkscape:connector-curvature="0"
       d="m -240.34451,275.61695 -0.0523,-0.006 -0.0495,-0.006 -0.0468,-0.006 -0.044,-0.006 -0.0441,-0.006 -0.0386,-0.008 -0.0358,-0.008 -0.0358,-0.008 -0.0303,-0.011 -0.0303,-0.011 -0.0303,-0.0138 -0.0248,-0.0138 -0.0247,-0.0165 -0.0248,-0.0193 -0.022,-0.0193 -0.0192,-0.022 -0.0192,-0.022 -0.0165,-0.0248 -0.0165,-0.0275 -0.0165,-0.0303 -0.0137,-0.033 -0.0137,-0.0358 -0.0137,-0.0385 -0.0137,-0.0413 -0.011,-0.044 -0.011,-0.0468 -0.0137,-0.0495 -0.011,-0.0523 -0.006,-0.0275 -0.006,-0.0303 -0.006,-0.0275 -0.006,-0.0303 -0.008,-0.033 -0.006,-0.033 -0.006,-0.033 -0.006,-0.033 -0.95486,-5.7429 -0.26142,0 -2.94162,5.07422 c -0.8035,1.34836 -0.90532,1.46118 -1.30983,1.54098 l 0,0.16235 1.89596,0 0,-0.16235 c -0.51733,-0.0495 -0.59713,-0.10182 -0.59713,-0.35498 0,-0.19262 0.0303,-0.28343 0.20088,-0.6274 l 0.58061,-1.14747 2.23167,0 -0.0523,-0.36598 -1.9675,0 1.52171,-2.63618 0.44579,2.63618 0.0523,0.36598 0.20088,1.32909 c 0.011,0.0908 0.022,0.18162 0.022,0.26417 0,0.38524 -0.1431,0.47605 -0.7925,0.53659 l 0,0.16235 2.49583,0 z"
       id="path3202-1" />
    <rect
       style="fill:#ffffff;fill-opacity:1;stroke:#ff0000;stroke-width:0.91299999;stroke-miterlimit:4;stroke-opacity:1;stroke-dasharray:none"
       id="rect4345"
       width="65.491646"
       height="32.025848"
       x="22.108932"
       y="251.76129" />
    <path
       id="path4359"
       d="m 52.697731,271.84544 0.0561,-0.016 0.0561,-0.016 0.0534,-0.0134 0.0508,-0.016 0.10418,-0.0267 0.0962,-0.024 0.0988,-0.024 0.0962,-0.0214 0.0962,-0.0214 0.0962,-0.0187 0.0988,-0.0187 0.10417,-0.016 0.0534,-0.008 0.0561,-0.0107 0.0561,-0.008 0.0588,-0.008 0.0588,-0.008 0.0615,-0.008 0.0641,-0.008 0.0641,-0.008 0.0694,-0.008 0.0695,-0.008 0.0748,-0.0107 0.0748,-0.008 0.82542,-0.10685 0,-0.30452 c -0.61172,-0.0401 -0.78535,-0.2137 -0.78535,-0.77199 l 0,-7.65043 -2.86089,0 0,0.31788 c 0.89219,0.0668 1.01239,0.16027 1.01239,0.77198 l 0,2.43617 c -0.57431,-0.61438 -0.97233,-0.82541 -1.58404,-0.82541 -1.46384,0 -2.5537,1.42377 -2.5537,3.35241 0,1.8111 1.00972,3.12802 2.40679,3.12802 0.7052,0 1.14595,-0.2137 1.77102,-0.87884 l -0.3339,-0.32055 c -0.26713,0.30719 -0.54494,0.45411 -0.83877,0.45411 -0.70521,0 -1.03644,-0.7987 -1.03644,-2.48959 0,-1.71494 0.35794,-2.50028 1.12993,-2.50028 0.44076,0 0.85213,0.31787 1.03911,0.82541 l 0,3.2322 c 0,0.0801 -0.13356,0.30719 -0.29383,0.47815 l 0.3339,0.32055 z"
       inkscape:connector-curvature="0"
       style="font-style:normal;font-variant:normal;font-weight:normal;font-stretch:normal;letter-spacing:normal;word-spacing:normal;text-anchor:start;fill:#ff0000;fill-opacity:1;stroke:none" />
    <path
       id="path4363"
       d="m 55.320881,275.41154 2.77542,0 c 1.54664,0 2.6098,-0.80671 2.6098,-1.9687 0,-0.36329 -0.11753,-0.71055 -0.33658,-0.92692 -0.195,-0.22439 -0.39267,-0.34459 -0.90555,-0.56096 0.69987,-0.16829 0.98569,-0.28583 1.3009,-0.56096 0.27514,-0.23774 0.42473,-0.57165 0.42473,-0.96432 0,-0.93493 -0.69987,-1.44781 -1.97138,-1.44781 l -0.1763,0.29651 c 0.78801,0 1.1513,0.3339 1.1513,1.06315 0,0.56096 -0.23507,0.9937 -0.65979,1.22877 -0.33391,0.19767 -0.80672,0.26712 -1.69357,0.26712 l -0.0988,0.31521 c 0.64109,0 1.05514,0.0401 1.25013,0.11753 0.40337,0.16829 0.65178,0.60103 0.65178,1.13261 0,1.06315 -0.72924,1.71226 -1.93129,1.71226 -0.41405,0 -0.63042,-0.14692 -0.63042,-0.41137 0,-0.1202 0.12021,-0.59301 0.34459,-1.38103 0.12822,-0.44075 0.18699,-0.66781 0.31521,-1.17 l 0,0 0.0988,-0.31521 0.6411,-2.28391 c 0.0588,-0.21637 0.1763,-0.27513 0.56096,-0.27513 l 0.1763,-0.29651 -2.54035,0 0,0.1576 c 0.61172,0.0481 0.75863,0.12822 0.75863,0.40336 0,0.14692 -0.0401,0.39267 -0.10684,0.63041 l -1.21275,4.35145 c -0.1763,0.57164 -0.24575,0.63041 -0.79603,0.72925 z"
       inkscape:connector-curvature="0"
       style="font-style:normal;font-variant:normal;font-weight:normal;font-stretch:normal;letter-spacing:normal;word-spacing:normal;text-anchor:start;fill:#ff0000;fill-opacity:1;stroke:none" />
    <path
       inkscape:connection-end-point="d4"
       inkscape:connection-start-point="d4"
       inkscape:connector-curvature="0"
       inkscape:connector-type="polyline"
       id="path4001"
       d="m -245.51812,220.85602 0,0"
       style="fill:none;stroke:#000000;stroke-width:1px;stroke-linecap:butt;stroke-linejoin:miter;stroke-opacity:1" />
    <path
       inkscape:transform-center-y="4.1260705"
       inkscape:transform-center-x="-4.4821842"
       sodipodi:type="star"
       style="fill:#00007e;fill-opacity:1;fill-rule:nonzero;stroke:#00007e;stroke-width:17.77589226;stroke-linecap:butt;stroke-miterlimit:4;stroke-opacity:1;stroke-dasharray:none;stroke-dashoffset:49.60488189"
       id="path3285-5-5-4"
       sodipodi:sides="3"
       sodipodi:cx="-28.571428"
       sodipodi:cy="4.5050397"
       sodipodi:r1="77.935738"
       sodipodi:r2="38.967869"
       sodipodi:arg1="-2.8343338"
       sodipodi:arg2="-1.7871362"
       inkscape:flatsided="true"
       inkscape:rounded="0"
       inkscape:randomized="0"
       d="M -102.85714,-19.066391 28.984885,-48.042558 -11.842031,80.624068 Z"
       transform="matrix(0.02812744,-0.11787622,0.11787622,0.02812744,6.0371741,217.00572)" />
    <path
       transform="translate(100.84,-1.159302)"
       inkscape:connection-end-point="d4"
       inkscape:connection-start-point="d4"
       inkscape:connector-curvature="0"
       inkscape:connector-type="polyline"
       id="path4143"
       d="m -65.985245,89.107467 0,0"
       style="fill:none;stroke:#000000;stroke-width:1px;stroke-linecap:butt;stroke-linejoin:miter;stroke-opacity:1" />
    <path
       inkscape:transform-center-y="4.1260705"
       inkscape:transform-center-x="-4.4821842"
       sodipodi:type="star"
       style="fill:#018a1c;fill-opacity:1;fill-rule:nonzero;stroke:#018a1c;stroke-width:17.77589225999999900;stroke-linecap:butt;stroke-miterlimit:4;stroke-opacity:1;stroke-dasharray:none;stroke-dashoffset:49.60488188999999400"
       id="path3285-5-5-4-5"
       sodipodi:sides="3"
       sodipodi:cx="-28.571428"
       sodipodi:cy="4.5050397"
       sodipodi:r1="77.935738"
       sodipodi:r2="38.967869"
       sodipodi:arg1="-2.8343338"
       sodipodi:arg2="-1.7871362"
       inkscape:flatsided="true"
       inkscape:rounded="0"
       inkscape:randomized="0"
       d="M -102.85714,-19.066391 28.984885,-48.042558 -11.842031,80.624068 Z"
       transform="matrix(0.02812744,-0.11787622,0.11787622,0.02812744,6.0371741,84.026599)" />
    <g
       id="g3449"
       transform="translate(-62,6)">
      <rect
         style="fill:#ffffff;fill-opacity:1;stroke:#000000;stroke-width:0.91299999;stroke-miterlimit:4;stroke-dasharray:none;stroke-opacity:1"
         id="rect3057-4-4-1"
         width="65.383965"
         height="41.430782"
         x="-26.99151"
         y="127.40942" />
      <path
         id="path4657"
         d="m -16.65126,145.1393 1.1905,0 -1.163986,5.54949 c -0.289007,1.41322 -0.726494,2.13972 -1.280647,2.13972 -0.15909,0 -0.262493,-0.0928 -0.262493,-0.21212 0,-0.0398 0.01326,-0.0795 0.05037,-0.14583 0.05305,-0.0795 0.06629,-0.13257 0.06629,-0.21212 0,-0.27575 -0.235979,-0.50112 -0.514381,-0.50112 -0.278403,0 -0.487868,0.23863 -0.487868,0.5409 0,0.44809 0.461354,0.80604 1.04202,0.80604 1.177244,0 2.099951,-1.30717 2.640847,-3.73855 l 0.95187,-4.22641 1.439738,0 0.07954,-0.42158 -1.42648,0 c 0.38446,-2.07344 0.872327,-3.01205 1.612082,-3.01205 0.169693,0 0.289008,0.0663 0.289008,0.15909 0,0.0398 -0.01326,0.0663 -0.05303,0.13257 -0.05038,0.11932 -0.07954,0.1856 -0.07954,0.27575 0,0.31818 0.198859,0.53029 0.490519,0.53029 0.304917,0 0.554153,-0.23863 0.554153,-0.53029 0,-0.48787 -0.487867,-0.85641 -1.134821,-0.85641 -0.649606,0 -1.163987,0.289 -1.638596,0.90944 -0.397718,0.51703 -0.660212,1.12422 -1.055277,2.39161 l -1.217015,0 z"
         inkscape:connector-curvature="0"
         style="font-style:normal;font-variant:normal;font-weight:normal;font-stretch:normal;letter-spacing:normal;word-spacing:normal;text-anchor:start;fill:#000000;fill-opacity:1;stroke:none" />
      <path
         id="path4659"
         d="m -7.1723232,153.54175 0,-0.008 0,-0.008 -0.00268,-0.003 0,-0.005 0,-0.003 -0.00268,-0.005 0,-0.005 -0.00268,-0.003 -0.00268,-0.005 -0.00268,-0.005 -0.00268,-0.008 -0.00268,-0.005 -0.00529,-0.005 -0.00529,-0.008 -0.00529,-0.008 -0.00529,-0.008 -0.00795,-0.008 -0.00795,-0.0106 -0.00268,-0.005 -0.00529,-0.005 -0.00529,-0.005 -0.00529,-0.005 -0.00529,-0.005 -0.00529,-0.008 -0.00529,-0.005 -0.00529,-0.005 -0.00529,-0.008 -0.00795,-0.005 -0.00529,-0.008 -0.00796,-0.008 -0.00529,-0.008 -0.00795,-0.008 -0.00795,-0.008 -0.00796,-0.008 -0.00795,-0.008 -0.00795,-0.008 -0.010605,-0.0106 -0.00795,-0.008 -0.010604,-0.0106 -0.00796,-0.008 -0.010605,-0.0106 -0.010604,-0.0106 c -1.651854,-1.66511 -2.0734345,-4.16013 -2.0734345,-6.18054 0,-2.2988 0.5011242,-4.59761 2.1264636,-6.24946 0.1723439,-0.15644 0.1723439,-0.18295 0.1723439,-0.22272 0,-0.0928 -0.053028,-0.13258 -0.1325723,-0.13258 -0.1325729,0 -1.3204227,0.89885 -2.0999491,2.57721 -0.6734684,1.45035 -0.8325554,2.9166 -0.8325554,4.02755 0,1.02877 0.14583,2.62759 0.8723275,4.12036 0.7927834,1.62269 1.9276041,2.48176 2.060177,2.48176 0.079544,0 0.1325723,-0.0398 0.1325723,-0.12992 z"
         inkscape:connector-curvature="0"
         style="font-style:normal;font-variant:normal;font-weight:normal;font-stretch:normal;letter-spacing:normal;word-spacing:normal;text-anchor:start;fill:#000000;fill-opacity:1;stroke:none" />
      <path
         id="path4661"
         d="m -2.0285085,150.54296 0.055681,-0.0159 0.055681,-0.0159 0.053028,-0.0133 0.050375,-0.0159 0.1034064,-0.0265 0.095453,-0.0239 0.098103,-0.0238 0.095452,-0.0212 0.095452,-0.0212 0.095452,-0.0186 0.098104,-0.0186 0.1034063,-0.0159 0.053028,-0.008 0.0556805,-0.0106 0.0556805,-0.008 0.0583319,-0.008 0.0583319,-0.008 0.0609833,-0.008 0.0636347,-0.008 0.0636347,-0.008 0.0689375,-0.008 0.0689381,-0.008 0.0742403,-0.0106 0.0742409,-0.008 0.81929792,-0.10606 0,-0.30227 c -0.60718194,-0.0398 -0.77952635,-0.21211 -0.77952635,-0.76626 l 0,-7.59376 -2.83970387,0 0,0.31552 c 0.8855846,0.0663 1.0048999,0.15909 1.0048999,0.76627 l 0,2.41813 c -0.5700618,-0.60983 -0.9651278,-0.8193 -1.5723103,-0.8193 -1.452995,0 -2.5347866,1.41322 -2.5347866,3.32757 0,1.79768 1.0022485,3.10485 2.3889568,3.10485 0.6999832,0 1.1374727,-0.21212 1.7579122,-0.87233 l -0.3314318,-0.31817 c -0.2624931,0.30491 -0.5408958,0.45074 -0.8325555,0.45074 -0.6999826,0 -1.0287624,-0.79278 -1.0287624,-2.47115 0,-1.70223 0.3552944,-2.48176 1.1215637,-2.48176 0.437489,0 0.8458125,0.31553 1.0314139,0.8193 l 0,3.20826 c 0,0.0795 -0.1325723,0.30491 -0.2916597,0.47461 l 0.3314318,0.31817 z"
         inkscape:connector-curvature="0"
         style="font-style:normal;font-variant:normal;font-weight:normal;font-stretch:normal;letter-spacing:normal;word-spacing:normal;text-anchor:start;fill:#000000;fill-opacity:1;stroke:none" />
      <path
         id="path4663"
         d="m 1.9910905,139.31406 0.029167,0 0.023861,0 0.026514,0.003 0.023862,0 0.023861,0.003 0.023862,0 0.021209,0 0.021215,0.003 0.021209,0 0.021215,0.003 0.018562,0 0.018562,0.003 0.018562,0 0.018562,0.003 0.015909,0 0.018562,0.003 0.015909,0.003 0.013257,0 0.01591,0.003 0.013257,0.003 0.015909,0 0.013257,0.003 0.010604,0.003 0.013257,0.003 0.010604,0.003 0.010604,0.003 0.021215,0.005 0.018562,0.005 0.018562,0.008 0.01591,0.005 0.013257,0.008 0.010604,0.0106 0.010604,0.008 0.010604,0.0106 0.00795,0.0106 0.00796,0.0106 0.00529,0.0106 0.00529,0.0133 0.00268,0.0159 0.00529,0.0133 0.00268,0.0159 0,0.0159 0.00268,0.0186 0,0.0186 0,0.0186 c 0,0.0875 -0.029167,0.20682 -0.087498,0.42159 -0.018562,0.0689 -0.039771,0.13522 -0.050375,0.1856 l -0.018562,0.0689 -1.328377,4.89457 0,0.0398 c 0,0.22538 0.7530124,0.51969 1.299211,0.51969 1.4768582,0 3.0995462,-1.71284 3.0995462,-3.24538 0,-0.68407 -0.4799131,-1.17459 -1.1348214,-1.17459 -0.6840742,0 -1.1931527,0.40037 -1.8851811,1.47686 l 0.1643896,0.12726 c 0.4295353,-0.753 0.8696763,-1.12421 1.3389826,-1.12421 l 0,0 c 0.4215811,0 0.6840748,0.32348 0.6840748,0.84051 0,0.6443 -0.4984729,1.69163 -1.073838,2.29615 -0.3632486,0.37386 -0.7821778,0.57802 -1.2011069,0.57802 -0.3049167,0 -0.4507465,-0.1087 -0.4507465,-0.33408 0,-0.58597 0.2943111,-1.53254 0.702634,-2.25639 l -0.1643896,-0.12726 1.0155055,-3.79158 -0.047729,-0.0504 c -0.4905181,0.0901 -0.8431611,0.14583 -1.4980694,0.22537 z"
         inkscape:connector-curvature="0"
         style="font-style:normal;font-variant:normal;font-weight:normal;font-stretch:normal;letter-spacing:normal;word-spacing:normal;text-anchor:start;fill:#000000;fill-opacity:1;stroke:none" />
      <path
         id="path4665"
         d="m 6.4296187,154.19135 -0.050375,-0.005 -0.047729,-0.005 -0.045076,-0.005 -0.042423,-0.005 -0.042424,-0.005 -0.037118,-0.008 -0.034472,-0.008 -0.034472,-0.008 -0.029167,-0.0106 -0.029166,-0.0106 -0.029167,-0.0133 -0.023861,-0.0133 -0.023861,-0.0159 -0.023861,-0.0186 -0.021215,-0.0186 -0.018562,-0.0212 -0.018562,-0.0212 -0.01591,-0.0238 -0.01591,-0.0265 -0.01591,-0.0291 -0.013257,-0.0318 -0.013257,-0.0344 -0.013257,-0.0371 -0.013257,-0.0398 -0.010605,-0.0424 -0.010604,-0.0451 -0.013257,-0.0477 -0.010604,-0.0504 -0.00529,-0.0265 -0.00529,-0.0291 -0.00529,-0.0265 -0.00529,-0.0291 -0.00795,-0.0318 -0.00529,-0.0318 -0.00529,-0.0318 -0.00529,-0.0318 -0.9200533,-5.53358 -0.2518876,0 -2.8344005,4.88928 c -0.77157214,1.2992 -0.87232761,1.40792 -1.26209078,1.48481 l 0,0.15644 1.82684978,0 0,-0.15644 c -0.4984729,-0.0477 -0.5753652,-0.0981 -0.5753652,-0.34204 0,-0.1856 0.029167,-0.2731 0.1935562,-0.60453 l 0.5594562,-1.10565 2.1476749,0 -0.047729,-0.35265 -1.8957873,0 1.4662526,-2.54009 0.4295347,2.54009 0.047729,0.35265 0.196207,1.28065 c 0.010604,0.0875 0.021209,0.17499 0.021209,0.25453 0,0.37121 -0.1378751,0.45871 -0.763618,0.51704 l 0,0.15644 2.4048658,0 z"
         inkscape:connector-curvature="0"
         style="font-style:normal;font-variant:normal;font-weight:normal;font-stretch:normal;letter-spacing:normal;word-spacing:normal;text-anchor:start;fill:#000000;fill-opacity:1;stroke:none" />
      <path
         id="path4667"
         d="m 10.226496,150.35735 0,-0.0822 -0.0027,-0.0769 -0.0053,-0.0769 -0.0053,-0.0742 -0.0106,-0.0716 -0.008,-0.0689 -0.01326,-0.0689 -0.01326,-0.0636 -0.01591,-0.0636 -0.01856,-0.061 -0.01856,-0.0583 -0.01856,-0.0557 -0.02386,-0.053 -0.02386,-0.0504 -0.02386,-0.0477 -0.026514,-0.0477 -0.029167,-0.0424 -0.029167,-0.0398 -0.031819,-0.0398 -0.031819,-0.0345 -0.034472,-0.0345 -0.034472,-0.0291 -0.037118,-0.0265 -0.039771,-0.0265 -0.039771,-0.0212 -0.039771,-0.0186 -0.042424,-0.0159 -0.042423,-0.0133 -0.045076,-0.0106 -0.045076,-0.008 -0.045076,-0.005 -0.047729,0 c -0.4374895,0 -0.7026347,0.32878 -0.7026347,0.69998 0,0.35529 0.2651452,0.69998 0.7026347,0.69998 0.1564354,0 0.3287798,-0.053 0.4613526,-0.17234 0.039771,-0.0265 0.053028,-0.0398 0.066286,-0.0398 0.013257,0 0.026514,0.0133 0.026514,0.19886 0,0.97838 -0.4640041,1.76852 -0.8988422,2.206 -0.1458299,0.14584 -0.1458299,0.17235 -0.1458299,0.21212 0,0.0901 0.066287,0.14318 0.1325729,0.14318 0.1458298,0 1.2011076,-1.01551 1.2011076,-2.5613 z"
         inkscape:connector-curvature="0"
         style="font-style:normal;font-variant:normal;font-weight:normal;font-stretch:normal;letter-spacing:normal;word-spacing:normal;text-anchor:start;fill:#000000;fill-opacity:1;stroke:none" />
      <path
         id="path4669"
         d="m 17.327081,150.54296 0.05568,-0.0159 0.05568,-0.0159 0.05303,-0.0133 0.05037,-0.0159 0.103406,-0.0265 0.09545,-0.0239 0.0981,-0.0238 0.09545,-0.0212 0.09545,-0.0212 0.09545,-0.0186 0.0981,-0.0186 0.103406,-0.0159 0.05303,-0.008 0.05568,-0.0106 0.05568,-0.008 0.05833,-0.008 0.05833,-0.008 0.06098,-0.008 0.06364,-0.008 0.06364,-0.008 0.06894,-0.008 0.06894,-0.008 0.07424,-0.0106 0.07424,-0.008 0.819298,-0.10606 0,-0.30227 c -0.607182,-0.0398 -0.779527,-0.21211 -0.779527,-0.76626 l 0,-7.59376 -2.839704,0 0,0.31552 c 0.885585,0.0663 1.0049,0.15909 1.0049,0.76627 l 0,2.41813 c -0.570061,-0.60983 -0.965127,-0.8193 -1.57231,-0.8193 -1.452995,0 -2.534787,1.41322 -2.534787,3.32757 0,1.79768 1.002249,3.10485 2.388957,3.10485 0.699983,0 1.137473,-0.21212 1.757912,-0.87233 l -0.331431,-0.31817 c -0.262493,0.30491 -0.540896,0.45074 -0.832556,0.45074 -0.699982,0 -1.028762,-0.79278 -1.028762,-2.47115 0,-1.70223 0.355294,-2.48176 1.121563,-2.48176 0.437489,0 0.845813,0.31553 1.031414,0.8193 l 0,3.20826 c 0,0.0795 -0.132572,0.30491 -0.291659,0.47461 l 0.331431,0.31817 z"
         inkscape:connector-curvature="0"
         style="font-style:normal;font-variant:normal;font-weight:normal;font-stretch:normal;letter-spacing:normal;word-spacing:normal;text-anchor:start;fill:#000000;fill-opacity:1;stroke:none" />
      <path
         id="path4671"
         d="m 21.081535,139.31406 0.02917,0 0.02386,0 0.02651,0.003 0.02386,0 0.02386,0.003 0.02386,0 0.02121,0 0.02121,0.003 0.02121,0 0.02121,0.003 0.01856,0 0.01856,0.003 0.01856,0 0.01856,0.003 0.01591,0 0.01856,0.003 0.01591,0.003 0.01326,0 0.01591,0.003 0.01326,0.003 0.01591,0 0.01326,0.003 0.0106,0.003 0.01326,0.003 0.0106,0.003 0.01061,0.003 0.02121,0.005 0.01856,0.005 0.01856,0.008 0.01591,0.005 0.01326,0.008 0.0106,0.0106 0.0106,0.008 0.0106,0.0106 0.008,0.0106 0.008,0.0106 0.0053,0.0106 0.0053,0.0133 0.0027,0.0159 0.0053,0.0133 0.0027,0.0159 0,0.0159 0.0027,0.0186 0,0.0186 0,0.0186 c 0,0.0875 -0.02917,0.20682 -0.0875,0.42159 -0.01856,0.0689 -0.03977,0.13522 -0.05038,0.1856 l -0.01856,0.0689 -1.328377,4.89457 0,0.0398 c 0,0.22538 0.753013,0.51969 1.299211,0.51969 1.476858,0 3.099546,-1.71284 3.099546,-3.24538 0,-0.68407 -0.479913,-1.17459 -1.134821,-1.17459 -0.684074,0 -1.193153,0.40037 -1.885181,1.47686 l 0.164389,0.12726 c 0.429536,-0.753 0.869677,-1.12421 1.338983,-1.12421 l 0,0 c 0.421581,0 0.684074,0.32348 0.684074,0.84051 0,0.6443 -0.498472,1.69163 -1.073837,2.29615 -0.363249,0.37386 -0.782178,0.57802 -1.201107,0.57802 -0.304917,0 -0.450747,-0.1087 -0.450747,-0.33408 0,-0.58597 0.294311,-1.53254 0.702634,-2.25639 l -0.164389,-0.12726 1.015505,-3.79158 -0.04773,-0.0504 c -0.490518,0.0901 -0.843161,0.14583 -1.49807,0.22537 z"
         inkscape:connector-curvature="0"
         style="font-style:normal;font-variant:normal;font-weight:normal;font-stretch:normal;letter-spacing:normal;word-spacing:normal;text-anchor:start;fill:#000000;fill-opacity:1;stroke:none" />
      <path
         id="path4673"
         d="m 19.930806,154.08264 2.754857,0 c 1.53519,0 2.590467,-0.80073 2.590467,-1.95411 0,-0.3606 -0.116664,-0.70529 -0.334082,-0.92006 -0.193557,-0.22272 -0.389764,-0.34203 -0.898842,-0.5568 0.69468,-0.16705 0.978385,-0.28371 1.291256,-0.55681 0.273099,-0.23598 0.421581,-0.56741 0.421581,-0.95717 0,-0.92801 -0.69468,-1.43709 -1.956771,-1.43709 l -0.174995,0.29431 c 0.782177,0 1.142775,0.33144 1.142775,1.05528 0,0.5568 -0.233328,0.98634 -0.654909,1.21967 -0.331431,0.19621 -0.800738,0.26514 -1.68102,0.26514 l -0.0981,0.31287 c 0.636348,0 1.047323,0.0398 1.240879,0.11667 0.40302,0.16704 0.646954,0.59658 0.646954,1.12421 0,1.05528 -0.723846,1.69958 -1.916999,1.69958 -0.410975,0 -0.625742,-0.14583 -0.625742,-0.40832 0,-0.11932 0.119315,-0.58862 0.342037,-1.3708 0.12727,-0.43749 0.185602,-0.66286 0.312871,-1.16134 l 0,0 0.0981,-0.31287 0.636349,-2.26699 c 0.05833,-0.21477 0.174996,-0.2731 0.556805,-0.2731 l 0.174995,-0.29431 -2.521529,0 0,0.15644 c 0.607182,0.0477 0.753012,0.12726 0.753012,0.40037 0,0.14582 -0.03977,0.38976 -0.106059,0.62574 l -1.203758,4.31921 c -0.174996,0.56741 -0.243933,0.62574 -0.790132,0.72385 z"
         inkscape:connector-curvature="0"
         style="font-style:normal;font-variant:normal;font-weight:normal;font-stretch:normal;letter-spacing:normal;word-spacing:normal;text-anchor:start;fill:#000000;fill-opacity:1;stroke:none" />
      <path
         id="path4675"
         d="m 30.454414,147.06955 -0.0027,-0.0981 0,-0.1034 -0.0027,-0.10341 -0.0027,-0.10871 -0.0106,-0.22272 -0.01591,-0.23333 -0.02386,-0.24393 -0.02651,-0.24924 -0.03712,-0.25984 -0.04242,-0.26515 -0.05303,-0.27044 -0.06098,-0.27575 -0.07159,-0.27841 -0.07954,-0.28105 -0.0928,-0.28106 -0.103407,-0.2837 -0.05833,-0.14053 -0.05833,-0.14318 -0.06363,-0.14052 -0.06629,-0.14053 c -0.792783,-1.62269 -1.927605,-2.48176 -2.060177,-2.48176 -0.07954,0 -0.132573,0.0531 -0.132573,0.13258 0,0.0398 0,0.0663 0.249237,0.30491 1.296559,1.30452 2.049571,3.40711 2.049571,6.16727 0,2.25904 -0.490518,4.58171 -2.126463,6.24682 -0.172345,0.15909 -0.172345,0.18295 -0.172345,0.22538 0,0.0769 0.05303,0.12992 0.132573,0.12992 0.132572,0 1.320422,-0.89619 2.099949,-2.57456 0.673468,-1.45299 0.832556,-2.91925 0.832556,-4.02756 z"
         inkscape:connector-curvature="0"
         style="font-style:normal;font-variant:normal;font-weight:normal;font-stretch:normal;letter-spacing:normal;word-spacing:normal;text-anchor:start;fill:#000000;fill-opacity:1;stroke:none" />
    </g>
    <path
       sodipodi:type="arc"
       style="fill:none;stroke:none"
       id="path4496"
       sodipodi:cx="-59.878708"
       sodipodi:cy="161.86386"
       sodipodi:rx="6.5921512"
       sodipodi:ry="7.1414971"
       d="m -53.286557,161.86386 a 6.5921512,7.1414971 0 0 1 -6.592151,7.1415 6.5921512,7.1414971 0 0 1 -6.592151,-7.1415 6.5921512,7.1414971 0 0 1 6.592151,-7.1415 6.5921512,7.1414971 0 0 1 6.592151,7.1415 z"
       transform="translate(122.73379,-7.7390449)" />
    <path
       sodipodi:nodetypes="ccc"
       inkscape:connector-curvature="0"
       inkscape:original-d="m 39.313256,153.81231 c 18.160839,-0.1167 17.285151,17.09059 27.54007,33.28164 12.363482,21.34598 35.445704,64.0345 -11.48383,35.47974"
       inkscape:path-effect="#path-effect5561-8"
       id="path5559-7"
       d="m 39.313256,153.81231 c 7.13957,2.50219 13.574199,6.98327 18.397269,12.81185 4.823069,5.82859 8.020856,12.9881 9.142801,20.46979 1.910688,12.74142 -2.469579,26.27443 -11.48383,35.47974"
       style="fill:none;stroke:#a40000;stroke-width:2;stroke-linecap:butt;stroke-linejoin:miter;stroke-miterlimit:4;stroke-dasharray:none;stroke-opacity:1" />
    <path
       inkscape:transform-center-x="-4.1114347"
       inkscape:transform-center-y="-1.9602376"
       sodipodi:type="star"
       style="fill:#a40000;fill-opacity:1;fill-rule:nonzero;stroke:#a40000;stroke-width:17.77589226;stroke-linecap:butt;stroke-miterlimit:4;stroke-dasharray:none;stroke-dashoffset:49.60488129;stroke-opacity:1"
       id="path2557-6"
       sodipodi:sides="3"
       sodipodi:cx="-28.571428"
       sodipodi:cy="4.5050397"
       sodipodi:r1="77.935738"
       sodipodi:r2="38.967869"
       sodipodi:arg1="-2.8343338"
       sodipodi:arg2="-1.7871362"
       inkscape:flatsided="true"
       inkscape:rounded="0"
       inkscape:randomized="0"
       d="M -102.85714,-19.066391 28.984885,-48.042558 -11.842031,80.624068 Z"
       transform="matrix(-0.09060032,-0.08048321,-0.08048321,0.09060032,56.239217,214.42467)" />
    <g
       transform="translate(2.4886128,-0.82909501)"
       id="g4651">
      <g
         transform="matrix(0.84857032,0,0,0.84857032,24.189551,8.591985)"
         id="g4570">
        <flowRoot
           xml:space="preserve"
           id="flowRoot3311-17"
           style="font-style:normal;font-weight:bold;font-size:16.72803497px;font-family:'Bitstream Vera Sans';fill:#00008b;fill-opacity:1;stroke:none"
           transform="translate(-82.49645,3.2960759)"><flowRegion
             id="flowRegion3313-4"><rect
               id="rect3315-0"
               width="117.29456"
               height="20.506399"
               x="-330.81711"
               y="120.91496"
               style="font-weight:bold;font-size:16.72803497px;fill:#00008b;fill-opacity:1" /></flowRegion><flowPara
             id="flowPara3317-9"
             style="font-style:normal;font-variant:normal;font-weight:bold;font-stretch:normal;font-size:15.65943146px;line-height:125%;font-family:Arial;-inkscape-font-specification:'Arial Bold';text-align:start;writing-mode:lr-tb;text-anchor:start;fill:#00008b">MAC phase #1</flowPara></flowRoot>        <path
           inkscape:connector-curvature="0"
           id="path4058-4"
           d="m -394.66571,149.47162 68.37645,0"
           style="fill:none;stroke:#00007e;stroke-width:2.35690546;stroke-linecap:butt;stroke-linejoin:miter;stroke-miterlimit:4;stroke-opacity:1;stroke-dasharray:2.35690543, 2.35690543;stroke-dashoffset:0" />
      </g>
      <g
         transform="matrix(0.84857032,0,0,0.84857032,28.760991,8.4718598)"
         id="g4585">
        <g
           id="g3904"
           transform="translate(-67.090776,-128.54695)">
          <flowRoot
             transform="translate(-10.876495,162.37053)"
             style="font-size:17.39936829px;font-style:normal;font-weight:normal;fill:#a40000;fill-opacity:1;stroke:none;font-family:Bitstream Vera Sans"
             id="flowRoot2569-8"
             xml:space="preserve"><flowRegion
               id="flowRegion2571-8"><rect
                 style="fill:#a40000;fill-opacity:1"
                 y="159.39218"
                 x="-324.30637"
                 height="20.506399"
                 width="93.210899"
                 id="rect2573-2" /></flowRegion><flowPara
               style="font-size:15.65943146px;font-style:normal;font-variant:normal;font-weight:bold;font-stretch:normal;text-align:start;line-height:125%;writing-mode:lr-tb;text-anchor:start;font-family:Arial;-inkscape-font-specification:Arial Bold"
               id="flowPara2575-4">BC phase</flowPara></flowRoot>          <path
             style="fill:none;stroke:#a40000;stroke-width:2.35690546;stroke-linecap:butt;stroke-linejoin:miter;stroke-miterlimit:4;stroke-opacity:1;stroke-dasharray:none;stroke-dashoffset:0"
             d="m -332.95797,347.02329 68.37647,0"
             id="path4058-8-5"
             inkscape:connector-curvature="0" />
        </g>
      </g>
      <g
         transform="matrix(0.84857032,0,0,0.84857032,16.311187,10.261192)"
         id="g4577">
        <flowRoot
           transform="translate(-74.091484,34.98859)"
           xml:space="preserve"
           id="flowRoot3311-1"
           style="font-size:16.72803497px;font-style:normal;font-weight:bold;fill:#018a1c;fill-opacity:1;stroke:none;font-family:Bitstream Vera Sans"><flowRegion
             id="flowRegion3313-7"><rect
               id="rect3315-4"
               width="109.52564"
               height="15.845044"
               x="-330.81711"
               y="120.91496"
               style="font-size:16.72803497px;font-weight:bold;fill:#018a1c;fill-opacity:1" /></flowRegion><flowPara
             id="flowPara3317-0"
             style="font-size:15.65943146px;font-style:normal;font-variant:normal;font-weight:bold;font-stretch:normal;text-align:start;line-height:125%;writing-mode:lr-tb;text-anchor:start;fill:#018a1c;fill-opacity:1;font-family:Arial;-inkscape-font-specification:Arial Bold">MAC phase #2</flowPara><flowPara
             style="font-size:15.65943146px;font-style:normal;font-variant:normal;font-weight:bold;font-stretch:normal;text-align:start;line-height:125%;writing-mode:lr-tb;text-anchor:start;fill:#018a1c;fill-opacity:1;font-family:Arial;-inkscape-font-specification:Arial Bold"
             id="flowPara3861" /></flowRoot>        <path
           style="fill:none;stroke:#018a1c;stroke-width:2.35690546;stroke-linecap:butt;stroke-linejoin:miter;stroke-miterlimit:4;stroke-opacity:1;stroke-dasharray:4.71381089, 2.35690544;stroke-dashoffset:0"
           d="m -385.38144,178.92343 68.37647,0"
           id="path3889"
           inkscape:connector-curvature="0" />
      </g>
    </g>
    <g
       id="g3145"
       transform="translate(-224.4938,168.96666)">
      <path
         id="path3147"
         d="M 0.99212597,51.519685 C 8.5039369,52.370078 16.122047,52.122047 23.527559,50.740157 43.830708,47.055118 62.539369,34.759842 73.62992,17.326771 76.889763,12.259842 79.51181,6.7677165 81.425196,1.027559"
         style="fill:none;stroke:#00007e;stroke-width:1.98425198px;stroke-linecap:butt;stroke-linejoin:miter;stroke-miterlimit:4;stroke-opacity:1;stroke-dasharray:1.9842519, 1.9842519;stroke-dashoffset:0"
         inkscape:connector-curvature="0" />
      <path
         id="path3149"
         d="M 67.535432,11.551181 81.212597,2.5511811 82.16929,18.885827 z"
         style="fill:#00007e;fill-opacity:1;fill-rule:nonzero;stroke:#00007e;stroke-width:2.12598419px;stroke-linecap:butt;stroke-linejoin:miter;stroke-miterlimit:4;stroke-opacity:1;stroke-dasharray:none"
         inkscape:connector-curvature="0" />
    </g>
    <path
       sodipodi:nodetypes="cssc"
       inkscape:connector-curvature="0"
       inkscape:original-d="m -224.40848,87.349944 c 7.45055,0.83505 15.05548,0.0974 22.52988,0.77689 21.90514,1.99138 37.30889,16.948356 50.10956,33.406386 4.01952,5.16795 7.76893,9.50593 7.76893,16.31474"
       inkscape:path-effect="#path-effect4557"
       id="path4555"
       d="m -224.40848,87.349944 c 7.49429,-0.840073 15.11126,-0.577419 22.52988,0.77689 20.31601,3.708799 39.00196,15.996146 50.10956,33.406386 3.24792,5.09085 5.86391,10.58442 7.76893,16.31474"
       style="fill:none;stroke:#018a1c;stroke-width:2;stroke-linecap:butt;stroke-linejoin:miter;stroke-miterlimit:4;stroke-opacity:1;stroke-dasharray:4, 2;stroke-dashoffset:0" />
    <path
       transform="matrix(0.11718728,-0.03087228,0.03087228,0.11718728,-144.89119,127.41075)"
       d="M -102.85714,-19.066391 28.984885,-48.042558 -11.842031,80.624068 Z"
       inkscape:randomized="0"
       inkscape:rounded="0"
       inkscape:flatsided="true"
       sodipodi:arg2="-1.7871362"
       sodipodi:arg1="-2.8343338"
       sodipodi:r2="38.967869"
       sodipodi:r1="77.935738"
       sodipodi:cy="4.5050397"
       sodipodi:cx="-28.571428"
       sodipodi:sides="3"
       id="path4541"
       style="fill:#018a1c;fill-opacity:1;fill-rule:nonzero;stroke:#018a1c;stroke-width:17.77589226;stroke-linecap:butt;stroke-miterlimit:4;stroke-opacity:1;stroke-dasharray:none;stroke-dashoffset:49.60488189"
       sodipodi:type="star"
       inkscape:transform-center-x="4.8303593"
       inkscape:transform-center-y="4.1573107" />
    <flowRoot
       xml:space="preserve"
       id="flowRoot3311"
       style="font-style:normal;font-weight:bold;font-size:14.19491386px;font-family:'Bitstream Vera Sans';fill:#008000;fill-opacity:1;stroke:none"
       transform="translate(-324.02431,142.6789)"><flowRegion
         id="flowRegion3313"><rect
           id="rect3315"
           width="99.532684"
           height="17.401121"
           x="-0.88949877"
           y="-3.4470677"
           style="font-weight:bold;font-size:14.19491386px;fill:#008000;fill-opacity:1" /></flowRegion><flowPara
         id="flowPara3317"
         style="font-style:normal;font-variant:normal;font-weight:bold;font-stretch:normal;font-size:13.28812885px;line-height:125%;font-family:Arial;-inkscape-font-specification:'Arial Bold';text-align:start;writing-mode:lr-tb;text-anchor:start;fill:#008000">MAC phase #2</flowPara></flowRoot>  </g>
</svg>
